<?xml version="1.0" encoding="UTF-8"?>
<svg xmlns="http://www.w3.org/2000/svg"
     xmlns:xlink="http://www.w3.org/1999/xlink"
     xmlns:gadfly="http://www.gadflyjl.org/ns"
     version="1.2"
     width="152.4mm" height="101.6mm" viewBox="0 0 152.4 101.6"
     stroke="none"
     fill="#000000"
     stroke-width="0.3"
     font-size="3.88"
>
<defs>
  <marker id="arrow" markerWidth="15" markerHeight="7" refX="5" refY="3.5" orient="auto" markerUnits="strokeWidth">
    <path d="M0,0 L15,3.5 L0,7 z" stroke="context-stroke" fill="context-stroke"/>
  </marker>
</defs>
<g class="plotroot xscalable yscalable" id="img-1c76d9b4-1">
  <g font-size="3.88" font-family="'PT Sans','Helvetica Neue','Helvetica',sans-serif" fill="#564A55" stroke="#000000" stroke-opacity="0.000" id="img-1c76d9b4-2">
    <g transform="translate(84.35,89.99)">
      <g class="primitive">
        <text text-anchor="middle" dy="0.6em">Time (days)</text>
      </g>
    </g>
  </g>
  <g class="guide xlabels" font-size="2.82" font-family="'PT Sans Caption','Helvetica Neue','Helvetica',sans-serif" fill="#6C606B" id="img-1c76d9b4-3">
    <g transform="translate(23.31,83.32)">
      <g class="primitive">
        <text text-anchor="middle" dy="0.6em">0</text>
      </g>
    </g>
    <g transform="translate(53.83,83.32)">
      <g class="primitive">
        <text text-anchor="middle" dy="0.6em">200</text>
      </g>
    </g>
    <g transform="translate(84.35,83.32)">
      <g class="primitive">
        <text text-anchor="middle" dy="0.6em">400</text>
      </g>
    </g>
    <g transform="translate(114.88,83.32)">
      <g class="primitive">
        <text text-anchor="middle" dy="0.6em">600</text>
      </g>
    </g>
    <g transform="translate(145.4,83.32)">
      <g class="primitive">
        <text text-anchor="middle" dy="0.6em">800</text>
      </g>
    </g>
  </g>
  <g clip-path="url(#img-1c76d9b4-4)">
    <g id="img-1c76d9b4-5">
      <g pointer-events="visible" fill="#000000" fill-opacity="0.000" stroke="#000000" stroke-opacity="0.000" class="guide background" id="img-1c76d9b4-6">
        <g transform="translate(84.35,46.46)" id="img-1c76d9b4-7">
          <path d="M-63.05,-35.85 L 63.05 -35.85 63.05 35.85 -63.05 35.85 z" class="primitive"/>
        </g>
      </g>
      <g class="guide ygridlines xfixed" stroke-dasharray="0.5,0.5" stroke-width="0.2" stroke="#D0D0E0" id="img-1c76d9b4-8">
        <g transform="translate(84.35,80.32)" id="img-1c76d9b4-9">
          <path fill="none" d="M-63.05,0 L 63.05 0" class="primitive"/>
        </g>
        <g transform="translate(84.35,63.39)" id="img-1c76d9b4-10">
          <path fill="none" d="M-63.05,0 L 63.05 0" class="primitive"/>
        </g>
        <g transform="translate(84.35,46.46)" id="img-1c76d9b4-11">
          <path fill="none" d="M-63.05,0 L 63.05 0" class="primitive"/>
        </g>
        <g transform="translate(84.35,29.54)" id="img-1c76d9b4-12">
          <path fill="none" d="M-63.05,0 L 63.05 0" class="primitive"/>
        </g>
        <g transform="translate(84.35,12.61)" id="img-1c76d9b4-13">
          <path fill="none" d="M-63.05,0 L 63.05 0" class="primitive"/>
        </g>
      </g>
      <g class="guide xgridlines yfixed" stroke-dasharray="0.5,0.5" stroke-width="0.2" stroke="#D0D0E0" id="img-1c76d9b4-14">
        <g transform="translate(23.31,46.46)" id="img-1c76d9b4-15">
          <path fill="none" d="M0,-35.85 L 0 35.85" class="primitive"/>
        </g>
        <g transform="translate(53.83,46.46)" id="img-1c76d9b4-16">
          <path fill="none" d="M0,-35.85 L 0 35.85" class="primitive"/>
        </g>
        <g transform="translate(84.35,46.46)" id="img-1c76d9b4-17">
          <path fill="none" d="M0,-35.85 L 0 35.85" class="primitive"/>
        </g>
        <g transform="translate(114.88,46.46)" id="img-1c76d9b4-18">
          <path fill="none" d="M0,-35.85 L 0 35.85" class="primitive"/>
        </g>
        <g transform="translate(145.4,46.46)" id="img-1c76d9b4-19">
          <path fill="none" d="M0,-35.85 L 0 35.85" class="primitive"/>
        </g>
      </g>
      <g class="plotpanel" id="img-1c76d9b4-20">
        <metadata>
          <boundingbox value="21.30500000000002mm 10.611666666666665mm 126.09499999999998mm 71.70333333333333mm"/>
          <unitbox value="-13.10454973586142 4118.162572005317 826.2090994717229 -4236.325144010634"/>
        </metadata>
        <g stroke-width="0.3" fill="#000000" fill-opacity="0.000" class="geometry" id="img-1c76d9b4-21">
          <g class="color_RGB{N0f8}(0.502,0.0,0.502)" stroke-dasharray="none" stroke="#800080" id="img-1c76d9b4-22">
            <g transform="translate(79.01,62.87)" id="img-1c76d9b4-23">
              <path fill="none" d="M-55.71,-36.99 L -55.55 -36.21 -55.4 -35.43 -55.25 -34.64 -55.1 -33.92 -54.94 -33.24 -54.79 -32.54 -54.64 -31.81 -54.48 -31.09 -54.33 -30.45 -54.18 -29.81 -54.03 -29.2 -53.87 -28.53 -53.72 -28.06 -53.57 -27.52 -53.42 -26.84 -53.26 -26.42 -53.11 -25.77 -52.96 -25.16 -52.81 -24.8 -52.65 -24.36 -52.5 -24.04 -52.35 -23.34 -52.2 -23.15 -52.04 -22.41 -51.89 -22.2 -51.74 -21.84 -51.59 -21.29 -51.43 -21.05 -51.28 -20.57 -51.13 -20.16 -50.97 -19.87 -50.82 -19.51 -50.67 -19.38 -50.52 -18.79 -50.36 -18.49 -50.21 -18.47 -50.06 -17.82 -49.91 -17.59 -49.75 -17.26 -49.6 -17.15 -49.45 -16.56 -49.3 -16.49 -49.14 -16.23 -48.99 -15.99 -48.84 -15.8 -48.69 -15.59 -48.53 -15.23 -48.38 -14.92 -48.23 -14.84 -48.07 -14.62 -47.92 -14.41 -47.77 -14.12 -47.62 -14.13 -47.46 -13.82 -47.31 -13.64 -47.16 -13.54 -47.01 -13.31 -46.85 -13.11 -46.7 -12.91 -46.55 -12.78 -46.4 -12.52 -46.24 -12.65 -46.09 -12.18 -45.94 -12.17 -45.79 -12.02 -45.63 -11.83 -45.48 -11.91 -45.33 -11.61 -45.18 -11.43 -45.02 -11.32 -44.87 -11.31 -44.72 -11.06 -44.56 -10.98 -44.41 -10.77 -44.26 -10.9 -44.11 -10.6 -43.95 -10.56 -43.8 -10.34 -43.65 -10.09 -43.5 -10.13 -43.34 -10.09 -43.19 -9.88 -43.04 -9.77 -42.89 -9.71 -42.73 -9.56 -42.58 -9.38 -42.43 -9.17 -42.28 -9.28 -42.12 -9.35 -41.97 -8.95 -41.82 -8.74 -41.66 -8.89 -41.51 -8.79 -41.36 -8.32 -41.21 -8.45 -41.05 -8.3 -40.9 -8.33 -40.75 -8.08 -40.6 -7.98 -40.44 -7.96 -40.29 -8.02 -40.14 -7.75 -39.99 -7.69 -39.83 -7.63 -39.68 -7.52 -39.53 -7.43 -39.38 -7.34 -39.22 -7.16 -39.07 -7.14 -38.92 -7.11 -38.77 -6.94 -38.61 -6.8 -38.46 -6.62 -38.31 -6.83 -38.15 -6.77 -38 -6.38 -37.85 -6.69 -37.7 -6.58 -37.54 -6.37 -37.39 -6.28 -37.24 -6.26 -37.09 -5.78 -36.93 -6.1 -36.78 -5.61 -36.63 -5.81 -36.48 -5.68 -36.32 -5.76 -36.17 -5.83 -36.02 -5.61 -35.87 -5.35 -35.71 -5.27 -35.56 -5.41 -35.41 -5.17 -35.25 -5.23 -35.1 -5.26 -34.95 -5.01 -34.8 -4.86 -34.64 -5.03 -34.49 -4.9 -34.34 -4.68 -34.19 -4.69 -34.03 -4.42 -33.88 -4.45 -33.73 -4.34 -33.58 -4.59 -33.42 -4.51 -33.27 -4.22 -33.12 -4.28 -32.97 -4.26 -32.81 -3.99 -32.66 -4.21 -32.51 -3.93 -32.36 -3.95 -32.2 -3.9 -32.05 -3.9 -31.9 -3.57 -31.74 -3.49 -31.59 -3.71 -31.44 -3.56 -31.29 -3.62 -31.13 -3.42 -30.98 -3.16 -30.83 -3.21 -30.68 -3.4 -30.52 -3.11 -30.37 -3.22 -30.22 -3.15 -30.07 -3.01 -29.91 -3.02 -29.76 -2.77 -29.61 -3.08 -29.46 -2.79 -29.3 -2.96 -29.15 -2.72 -29 -2.71 -28.84 -2.61 -28.69 -2.45 -28.54 -2.55 -28.39 -2.55 -28.23 -2.55 -28.08 -2.26 -27.93 -2.17 -27.78 -2.34 -27.62 -2.32 -27.47 -2.21 -27.32 -1.92 -27.17 -1.81 -27.01 -1.87 -26.86 -2.11 -26.71 -2.06 -26.56 -1.86 -26.4 -1.96 -26.25 -1.81 -26.1 -1.67 -25.95 -1.69 -25.79 -1.58 -25.64 -1.48 -25.49 -1.5 -25.33 -1.14 -25.18 -1.42 -25.03 -1.35 -24.88 -1.17 -24.72 -1.44 -24.57 -1.23 -24.42 -1.33 -24.27 -1.05 -24.11 -1.11 -23.96 -0.96 -23.81 -1.08 -23.66 -1.1 -23.5 -0.96 -23.35 -0.94 -23.2 -0.9 -23.05 -0.77 -22.89 -0.85 -22.74 -0.72 -22.59 -0.47 -22.43 -0.87 -22.28 -0.65 -22.13 -0.65 -21.98 -0.79 -21.82 -0.49 -21.67 -0.58 -21.52 -0.67 -21.37 -0.54 -21.21 -0.63 -21.06 -0.39 -20.91 -0.25 -20.76 -0.47 -20.6 -0.11 -20.45 -0.57 -20.3 -0.26 -20.15 -0.31 -19.99 -0.34 -19.84 0.06 -19.69 -0.03 -19.54 0.19 -19.38 -0 -19.23 -0.06 -19.08 -0.11 -18.92 0.32 -18.77 0.23 -18.62 0.21 -18.47 0.18 -18.31 0.3 -18.16 0.48 -18.01 0.25 -17.86 0.11 -17.7 0.42 -17.55 0.23 -17.4 0.45 -17.25 0.32 -17.09 0.59 -16.94 0.7 -16.79 0.52 -16.64 0.59 -16.48 0.35 -16.33 0.58 -16.18 0.71 -16.02 0.61 -15.87 0.57 -15.72 0.79 -15.57 0.89 -15.41 0.74 -15.26 0.85 -15.11 0.81 -14.96 1.11 -14.8 1.02 -14.65 0.88 -14.5 0.96 -14.35 1.08 -14.19 0.95 -14.04 1.09 -13.89 1.42 -13.74 1.16 -13.58 1.31 -13.43 1.24 -13.28 1.29 -13.13 1.61 -12.97 1.27 -12.82 1.13 -12.67 1.16 -12.51 1.18 -12.36 1.39 -12.21 1.41 -12.06 1.42 -11.9 1.3 -11.75 1.93 -11.6 1.28 -11.45 1.54 -11.29 2 -11.14 1.31 -10.99 1.74 -10.84 1.27 -10.68 1.54 -10.53 1.7 -10.38 1.68 -10.23 1.66 -10.07 1.77 -9.92 1.63 -9.77 1.44 -9.61 1.84 -9.46 1.89 -9.31 1.88 -9.16 1.69 -9 2.04 -8.85 1.97 -8.7 1.92 -8.55 2.07 -8.39 2.01 -8.24 2.14 -8.09 2.06 -7.94 2.07 -7.78 2.12 -7.63 1.91 -7.48 2.1 -7.33 2.45 -7.17 1.99 -7.02 2.44 -6.87 2.14 -6.72 2.15 -6.56 2.46 -6.41 2.54 -6.26 2.36 -6.1 2.54 -5.95 2.69 -5.8 2.49 -5.65 2.43 -5.49 2.2 -5.34 2.77 -5.19 2.76 -5.04 2.79 -4.88 2.23 -4.73 2.77 -4.58 2.52 -4.43 2.32 -4.27 3.06 -4.12 2.62 -3.97 2.17 -3.82 3.11 -3.66 2.88 -3.51 2.81 -3.36 2.92 -3.2 2.81 -3.05 2.62 -2.9 3.15 -2.75 2.63 -2.59 2.82 -2.44 2.77 -2.29 2.69 -2.14 2.86 -1.98 3.06 -1.83 3.04 -1.68 2.74 -1.53 2.94 -1.37 3.06 -1.22 2.95 -1.07 2.84 -0.92 2.77 -0.76 2.49 -0.61 3 -0.46 3.14 -0.31 2.64 -0.15 3.18 0 3.35 0.15 2.99 0.31 3.23 0.46 3.09 0.61 3.28 0.76 3.33 0.92 3.23 1.07 3.37 1.22 3.45 1.37 3.34 1.53 3.28 1.68 3.56 1.83 3.34 1.98 3.46 2.14 3.56 2.29 3.96 2.44 3.34 2.59 3.16 2.75 3.75 2.9 3.44 3.05 3.6 3.2 3.37 3.36 3.36 3.51 3.63 3.66 3.72 3.82 3.48 3.97 3.84 4.12 3.6 4.27 3.87 4.43 3.83 4.58 3.8 4.73 3.67 4.88 3.39 5.04 3.66 5.19 4.01 5.34 3.44 5.49 3.35 5.65 3.37 5.8 3.61 5.95 3.43 6.1 3.49 6.26 3.73 6.41 4.08 6.56 4.49 6.72 3.64 6.87 4.14 7.02 3.9 7.17 4.4 7.33 3.75 7.48 4.26 7.63 4.2 7.78 3.92 7.94 4.24 8.09 3.53 8.24 4.09 8.39 3.99 8.55 4.1 8.7 4.17 8.85 3.92 9 4.31 9.16 4.37 9.31 3.91 9.46 4.47 9.61 3.71 9.77 4.15 9.92 4.35 10.07 3.7 10.23 4.03 10.38 3.99 10.53 4.32 10.68 4.17 10.84 4.47 10.99 4.37 11.14 4.15 11.29 3.86 11.45 4.59 11.6 4.19 11.75 4.36 11.9 4.29 12.06 4.22 12.21 4.57 12.36 4.29 12.51 4.27 12.67 4.57 12.82 3.93 12.97 4.63 13.13 4.58 13.28 4.95 13.43 4.41 13.58 3.97 13.74 4.55 13.89 4.51 14.04 4.37 14.19 4.31 14.35 4.7 14.5 4.39 14.65 4.85 14.8 4.41 14.96 4.44 15.11 4.45 15.26 4.25 15.41 4.85 15.57 4.61 15.72 4.6 15.87 4.6 16.02 4.81 16.18 4.97 16.33 4.25 16.48 4.85 16.64 4.77 16.79 5.04 16.94 4.65 17.09 4.68 17.25 4.96 17.4 5.16 17.55 5.03 17.7 4.61 17.86 5.11 18.01 5.27 18.16 4.84 18.31 4.77 18.47 4.71 18.62 4.86 18.77 4.74 18.92 5.55 19.08 5.2 19.23 5.13 19.38 5.11 19.54 4.85 19.69 5.09 19.84 4.83 19.99 4.84 20.15 5.06 20.3 5.37 20.45 4.82 20.6 4.88 20.76 5.09 20.91 4.81 21.06 4.68 21.21 5.35 21.37 5.16 21.52 5.25 21.67 5.11 21.82 5.42 21.98 5.19 22.13 5.08 22.28 5.07 22.43 4.8 22.59 5.76 22.74 4.5 22.89 5.33 23.05 5.12 23.2 5.54 23.35 4.91 23.5 5.16 23.66 4.9 23.81 5.49 23.96 5.49 24.11 5.35 24.27 4.82 24.42 5.53 24.57 5.25 24.72 5.68 24.88 4.97 25.03 5.15 25.18 4.88 25.33 5.15 25.49 5.24 25.64 5.43 25.79 5.55 25.95 5.06 26.1 5.32 26.25 5.16 26.4 5.43 26.56 5.22 26.71 5.77 26.86 5.85 27.01 5.2 27.17 5.76 27.32 5.92 27.47 5.78 27.62 5.57 27.78 5.72 27.93 4.52 28.08 5.69 28.23 5.53 28.39 5.5 28.54 5.55 28.69 5.91 28.84 5.29 29 5.32 29.15 5.78 29.3 5.75 29.46 5.31 29.61 5.45 29.76 5.66 29.91 5.76 30.07 5.71 30.22 5.49 30.37 5.64 30.52 6 30.68 5.68 30.83 5.57 30.98 5.38 31.13 5.82 31.29 5.56 31.44 6.03 31.59 6.15 31.74 5.32 31.9 6.01 32.05 5.24 32.2 5.76 32.36 6.18 32.51 5.34 32.66 6.09 32.81 5.86 32.97 6.07 33.12 5.73 33.27 5.9 33.42 5.6 33.58 6.37 33.73 5.91 33.88 6.19 34.03 6.17 34.19 6.14 34.34 6.41 34.49 6.11 34.64 5.8 34.8 5.88 34.95 6.04 35.1 5.17 35.25 5.71 35.41 6.03 35.56 5.95 35.71 6.08 35.87 5.43 36.02 6.28 36.17 5.91 36.32 6.6 36.48 6.09 36.63 5.9 36.78 5.38 36.93 6.1 37.09 5.75 37.24 5.87 37.39 6.37 37.54 6.15 37.7 5.56 37.85 6.13 38 5.92 38.15 6.48 38.31 6.21 38.46 5.96 38.61 6.71 38.77 6 38.92 5.97 39.07 6.47 39.22 6.11 39.38 6.17 39.53 6.36 39.68 6.53 39.83 6.06 39.99 5.9 40.14 6.39 40.29 6.12 40.44 6.17 40.6 6.79 40.75 6.51 40.9 6.22 41.05 6.98 41.21 6.63 41.36 6.41 41.51 6.32 41.66 6.18 41.82 6.25 41.97 6.23 42.12 6.27 42.28 6.12 42.43 6.41 42.58 6.4 42.73 6.77 42.89 6.21 43.04 6.67 43.19 6.85 43.34 6.54 43.5 6.86 43.65 6.38 43.8 6.59 43.95 7 44.11 6.6 44.26 6.37 44.41 6.17 44.56 6.71 44.72 6.25 44.87 6.03 45.02 6.52 45.18 6.21 45.33 6.53 45.48 6.22 45.63 6.57 45.79 6.5 45.94 6.76 46.09 6.65 46.24 7.1 46.4 6.42 46.55 6.52 46.7 6.54 46.85 6.84 47.01 6.68 47.16 6.71 47.31 6.45 47.46 6.76 47.62 6.42 47.77 6.47 47.92 6.74 48.07 6.35 48.23 6.57 48.38 6.57 48.53 6.85 48.69 6.54 48.84 6.91 48.99 6.86 49.14 6.8 49.3 6.76 49.45 7.25 49.6 6.3 49.75 6.62 49.91 6.38 50.06 6.75 50.21 6.6 50.36 6.3 50.52 6.9 50.67 7.26 50.82 6.75 50.97 6.32 51.13 6.77 51.28 6.24 51.43 6.81 51.59 6.67 51.74 6.34 51.89 6.69 52.04 7 52.2 6.88 52.35 7.48 52.5 7.33 52.65 6.84 52.81 7.33 52.96 6.35 53.11 6.48 53.26 6.71 53.42 7.16 53.57 7.02 53.72 6.61 53.87 7 54.03 6.77 54.18 6.78 54.33 6.61 54.48 6.62 54.64 7.36 54.79 6.9 54.94 6.36 55.1 6.44 55.25 6.33 55.4 6.91 55.55 6.8 55.71 7.02" class="primitive"/>
            </g>
          </g>
        </g>
      </g>
    </g>
  </g>
  <g class="guide ylabels" font-size="2.82" font-family="'PT Sans Caption','Helvetica Neue','Helvetica',sans-serif" fill="#6C606B" id="img-1c76d9b4-24">
    <g transform="translate(20.3,80.32)" id="img-1c76d9b4-25">
      <g class="primitive">
        <text text-anchor="end" dy="0.35em">0</text>
      </g>
    </g>
    <g transform="translate(20.3,63.39)" id="img-1c76d9b4-26">
      <g class="primitive">
        <text text-anchor="end" dy="0.35em">1000</text>
      </g>
    </g>
    <g transform="translate(20.3,46.46)" id="img-1c76d9b4-27">
      <g class="primitive">
        <text text-anchor="end" dy="0.35em">2000</text>
      </g>
    </g>
    <g transform="translate(20.3,29.54)" id="img-1c76d9b4-28">
      <g class="primitive">
        <text text-anchor="end" dy="0.35em">3000</text>
      </g>
    </g>
    <g transform="translate(20.3,12.61)" id="img-1c76d9b4-29">
      <g class="primitive">
        <text text-anchor="end" dy="0.35em">4000</text>
      </g>
    </g>
  </g>
  <g font-size="3.88" font-family="'PT Sans','Helvetica Neue','Helvetica',sans-serif" fill="#564A55" stroke="#000000" stroke-opacity="0.000" id="img-1c76d9b4-30">
    <g transform="translate(8.81,44.46)" id="img-1c76d9b4-31">
      <g class="primitive">
        <text text-anchor="middle" dy="0.35em" transform="rotate(-90,0, 2)">Flowing Pressure (psig)</text>
      </g>
    </g>
  </g>
  <g font-size="3.88" font-family="'PT Sans','Helvetica Neue','Helvetica',sans-serif" fill="#564A55" stroke="#000000" stroke-opacity="0.000" id="img-1c76d9b4-32">
    <g transform="translate(84.35,5)" id="img-1c76d9b4-33">
      <g class="primitive">
        <text text-anchor="middle" dy="0.6em">FBHP Over Time</text>
      </g>
    </g>
  </g>
</g>
<defs>
  <clipPath id="img-1c76d9b4-4">
    <path d="M21.31,10.61 L 147.4 10.61 147.4 82.32 21.31 82.32" />
  </clipPath>
</defs>
</svg>
