<?xml version="1.0" encoding="UTF-8"?>
<svg xmlns="http://www.w3.org/2000/svg"
     xmlns:xlink="http://www.w3.org/1999/xlink"
     xmlns:gadfly="http://www.gadflyjl.org/ns"
     version="1.2"
     width="152.4mm" height="101.6mm" viewBox="0 0 152.4 101.6"
     stroke="none"
     fill="#000000"
     stroke-width="0.3"
     font-size="3.88"
>
<defs>
  <marker id="arrow" markerWidth="15" markerHeight="7" refX="5" refY="3.5" orient="auto" markerUnits="strokeWidth">
    <path d="M0,0 L15,3.5 L0,7 z" stroke="context-stroke" fill="context-stroke"/>
  </marker>
</defs>
<g class="plotroot xscalable yscalable" id="img-05fa0624-1">
  <g font-size="3.88" font-family="'PT Sans','Helvetica Neue','Helvetica',sans-serif" fill="#564A55" stroke="#000000" stroke-opacity="0.000" id="img-05fa0624-2">
    <g transform="translate(84.35,89.99)">
      <g class="primitive">
        <text text-anchor="middle" dy="0.6em">Time (days)</text>
      </g>
    </g>
  </g>
  <g class="guide xlabels" font-size="2.82" font-family="'PT Sans Caption','Helvetica Neue','Helvetica',sans-serif" fill="#6C606B" id="img-05fa0624-3">
    <g transform="translate(23.31,83.32)">
      <g class="primitive">
        <text text-anchor="middle" dy="0.6em">0</text>
      </g>
    </g>
    <g transform="translate(53.83,83.32)">
      <g class="primitive">
        <text text-anchor="middle" dy="0.6em">200</text>
      </g>
    </g>
    <g transform="translate(84.35,83.32)">
      <g class="primitive">
        <text text-anchor="middle" dy="0.6em">400</text>
      </g>
    </g>
    <g transform="translate(114.88,83.32)">
      <g class="primitive">
        <text text-anchor="middle" dy="0.6em">600</text>
      </g>
    </g>
    <g transform="translate(145.4,83.32)">
      <g class="primitive">
        <text text-anchor="middle" dy="0.6em">800</text>
      </g>
    </g>
  </g>
  <g clip-path="url(#img-05fa0624-4)">
    <g id="img-05fa0624-5">
      <g pointer-events="visible" fill="#000000" fill-opacity="0.000" stroke="#000000" stroke-opacity="0.000" class="guide background" id="img-05fa0624-6">
        <g transform="translate(84.35,46.46)" id="img-05fa0624-7">
          <path d="M-63.05,-35.85 L 63.05 -35.85 63.05 35.85 -63.05 35.85 z" class="primitive"/>
        </g>
      </g>
      <g class="guide ygridlines xfixed" stroke-dasharray="0.5,0.5" stroke-width="0.2" stroke="#D0D0E0" id="img-05fa0624-8">
        <g transform="translate(84.35,80.32)" id="img-05fa0624-9">
          <path fill="none" d="M-63.05,0 L 63.05 0" class="primitive"/>
        </g>
        <g transform="translate(84.35,63.39)" id="img-05fa0624-10">
          <path fill="none" d="M-63.05,0 L 63.05 0" class="primitive"/>
        </g>
        <g transform="translate(84.35,46.46)" id="img-05fa0624-11">
          <path fill="none" d="M-63.05,0 L 63.05 0" class="primitive"/>
        </g>
        <g transform="translate(84.35,29.54)" id="img-05fa0624-12">
          <path fill="none" d="M-63.05,0 L 63.05 0" class="primitive"/>
        </g>
        <g transform="translate(84.35,12.61)" id="img-05fa0624-13">
          <path fill="none" d="M-63.05,0 L 63.05 0" class="primitive"/>
        </g>
      </g>
      <g class="guide xgridlines yfixed" stroke-dasharray="0.5,0.5" stroke-width="0.2" stroke="#D0D0E0" id="img-05fa0624-14">
        <g transform="translate(23.31,46.46)" id="img-05fa0624-15">
          <path fill="none" d="M0,-35.85 L 0 35.85" class="primitive"/>
        </g>
        <g transform="translate(53.83,46.46)" id="img-05fa0624-16">
          <path fill="none" d="M0,-35.85 L 0 35.85" class="primitive"/>
        </g>
        <g transform="translate(84.35,46.46)" id="img-05fa0624-17">
          <path fill="none" d="M0,-35.85 L 0 35.85" class="primitive"/>
        </g>
        <g transform="translate(114.88,46.46)" id="img-05fa0624-18">
          <path fill="none" d="M0,-35.85 L 0 35.85" class="primitive"/>
        </g>
        <g transform="translate(145.4,46.46)" id="img-05fa0624-19">
          <path fill="none" d="M0,-35.85 L 0 35.85" class="primitive"/>
        </g>
      </g>
      <g class="plotpanel" id="img-05fa0624-20">
        <metadata>
          <boundingbox value="21.30500000000002mm 10.611666666666665mm 126.09499999999998mm 71.70333333333333mm"/>
          <unitbox value="-13.10454973586142 4118.162572005317 826.2090994717229 -4236.325144010634"/>
        </metadata>
        <g stroke-width="0.3" fill="#000000" fill-opacity="0.000" class="geometry" id="img-05fa0624-21">
          <g class="color_RGB{N0f8}(0.502,0.0,0.502)" stroke-dasharray="none" stroke="#800080" id="img-05fa0624-22">
            <g transform="translate(79.01,62.87)" id="img-05fa0624-23">
              <path fill="none" d="M-55.71,-36.99 L -55.55 -36.23 -55.4 -35.51 -55.25 -34.69 -55.1 -34.05 -54.94 -33.21 -54.79 -32.64 -54.64 -31.71 -54.48 -31.05 -54.33 -30.45 -54.18 -29.76 -54.03 -29.26 -53.87 -28.59 -53.72 -27.95 -53.57 -27.4 -53.42 -26.86 -53.26 -26.26 -53.11 -25.82 -52.96 -25.32 -52.81 -24.82 -52.65 -24.42 -52.5 -23.91 -52.35 -23.46 -52.2 -22.98 -52.04 -22.52 -51.89 -22.13 -51.74 -21.67 -51.59 -21.45 -51.43 -21.03 -51.28 -20.72 -51.13 -20.07 -50.97 -19.86 -50.82 -19.58 -50.67 -19.13 -50.52 -19.01 -50.36 -18.44 -50.21 -18.26 -50.06 -18.06 -49.91 -17.62 -49.75 -17.2 -49.6 -17.01 -49.45 -16.7 -49.3 -16.56 -49.14 -16.23 -48.99 -16.14 -48.84 -15.84 -48.69 -15.64 -48.53 -15.27 -48.38 -15.18 -48.23 -14.92 -48.07 -14.65 -47.92 -14.39 -47.77 -14.13 -47.62 -13.91 -47.46 -13.89 -47.31 -13.65 -47.16 -13.34 -47.01 -13.37 -46.85 -13.01 -46.7 -13 -46.55 -12.75 -46.4 -12.65 -46.24 -12.54 -46.09 -12.31 -45.94 -12.07 -45.79 -11.99 -45.63 -11.79 -45.48 -11.68 -45.33 -11.5 -45.18 -11.56 -45.02 -11.3 -44.87 -11.2 -44.72 -11.18 -44.56 -11.01 -44.41 -10.93 -44.26 -10.73 -44.11 -10.59 -43.95 -10.45 -43.8 -10.48 -43.65 -10.41 -43.5 -10.05 -43.34 -10.12 -43.19 -9.85 -43.04 -9.62 -42.89 -9.7 -42.73 -9.62 -42.58 -9.44 -42.43 -9.23 -42.28 -9.11 -42.12 -9.09 -41.97 -8.92 -41.82 -8.86 -41.66 -8.86 -41.51 -8.69 -41.36 -8.74 -41.21 -8.41 -41.05 -8.4 -40.9 -8.26 -40.75 -8.26 -40.6 -8.16 -40.44 -8 -40.29 -7.7 -40.14 -7.92 -39.99 -7.76 -39.83 -7.56 -39.68 -7.52 -39.53 -7.34 -39.38 -7.46 -39.22 -7.4 -39.07 -6.98 -38.92 -6.94 -38.77 -7.11 -38.61 -6.77 -38.46 -6.89 -38.31 -6.62 -38.15 -6.61 -38 -6.51 -37.85 -6.45 -37.7 -6.48 -37.54 -6.29 -37.39 -5.96 -37.24 -6.14 -37.09 -6.16 -36.93 -6.1 -36.78 -6.06 -36.63 -5.75 -36.48 -5.86 -36.32 -5.68 -36.17 -5.59 -36.02 -5.43 -35.87 -5.52 -35.71 -5.25 -35.56 -5.21 -35.41 -5.37 -35.25 -5.24 -35.1 -4.96 -34.95 -4.97 -34.8 -4.99 -34.64 -4.8 -34.49 -4.98 -34.34 -4.59 -34.19 -4.5 -34.03 -4.35 -33.88 -4.45 -33.73 -4.32 -33.58 -4.21 -33.42 -4.27 -33.27 -4.43 -33.12 -4.18 -32.97 -4.17 -32.81 -4.16 -32.66 -4.16 -32.51 -4.07 -32.36 -4.03 -32.2 -3.84 -32.05 -3.89 -31.9 -3.49 -31.74 -3.81 -31.59 -3.68 -31.44 -3.45 -31.29 -3.31 -31.13 -3.57 -30.98 -3.27 -30.83 -3.17 -30.68 -3.3 -30.52 -3.12 -30.37 -3.12 -30.22 -3.11 -30.07 -3.11 -29.91 -2.98 -29.76 -2.91 -29.61 -2.86 -29.46 -3.03 -29.3 -2.71 -29.15 -2.7 -29 -2.48 -28.84 -2.6 -28.69 -2.4 -28.54 -2.42 -28.39 -2.58 -28.23 -2.37 -28.08 -2.21 -27.93 -2.21 -27.78 -2.4 -27.62 -2.14 -27.47 -2.25 -27.32 -1.86 -27.17 -2.06 -27.01 -1.9 -26.86 -1.84 -26.71 -2.23 -26.56 -1.84 -26.4 -1.78 -26.25 -2.09 -26.1 -1.92 -25.95 -1.61 -25.79 -1.44 -25.64 -1.48 -25.49 -1.6 -25.33 -1.66 -25.18 -1.4 -25.03 -1.27 -24.88 -1.23 -24.72 -1.44 -24.57 -1.2 -24.42 -1.33 -24.27 -1.28 -24.11 -0.98 -23.96 -1.03 -23.81 -1.15 -23.66 -1.01 -23.5 -0.94 -23.35 -1.08 -23.2 -1.17 -23.05 -0.79 -22.89 -1.07 -22.74 -0.86 -22.59 -0.81 -22.43 -0.56 -22.28 -0.58 -22.13 -0.59 -21.98 -0.63 -21.82 -0.48 -21.67 -0.7 -21.52 -0.42 -21.37 -0.71 -21.21 -0.43 -21.06 -0.41 -20.91 -0.38 -20.76 -0.37 -20.6 -0.13 -20.45 -0.21 -20.3 -0.13 -20.15 -0.01 -19.99 -0.04 -19.84 -0.09 -19.69 -0.21 -19.54 -0.27 -19.38 0.3 -19.23 0.26 -19.08 -0.21 -18.92 0.25 -18.77 -0.02 -18.62 0.08 -18.47 0.03 -18.31 0.24 -18.16 0.06 -18.01 0.06 -17.86 0.13 -17.7 0.1 -17.55 0.05 -17.4 0.37 -17.25 0.34 -17.09 0.67 -16.94 0.68 -16.79 0.59 -16.64 0.66 -16.48 0.4 -16.33 0.76 -16.18 0.75 -16.02 0.83 -15.87 0.67 -15.72 0.84 -15.57 0.99 -15.41 0.86 -15.26 1.11 -15.11 0.74 -14.96 0.64 -14.8 1.18 -14.65 0.84 -14.5 0.89 -14.35 1.11 -14.19 0.86 -14.04 0.7 -13.89 1.12 -13.74 1.05 -13.58 0.97 -13.43 0.83 -13.28 1.5 -13.13 1.17 -12.97 1.78 -12.82 1.28 -12.67 1.19 -12.51 1.21 -12.36 1.31 -12.21 1.25 -12.06 1.55 -11.9 1.46 -11.75 1.24 -11.6 1.61 -11.45 1.33 -11.29 1.61 -11.14 1.24 -10.99 1.4 -10.84 1.58 -10.68 1.7 -10.53 2.01 -10.38 1.82 -10.23 1.7 -10.07 1.62 -9.92 1.42 -9.77 1.88 -9.61 1.67 -9.46 1.68 -9.31 1.71 -9.16 1.99 -9 1.74 -8.85 1.75 -8.7 2.1 -8.55 2.34 -8.39 2.04 -8.24 2.04 -8.09 2.38 -7.94 1.93 -7.78 2.51 -7.63 2.22 -7.48 2.06 -7.33 1.91 -7.17 2.03 -7.02 2.31 -6.87 2.11 -6.72 2.33 -6.56 2.14 -6.41 2.38 -6.26 2.49 -6.1 2.24 -5.95 2.29 -5.8 2.68 -5.65 2.29 -5.49 2.6 -5.34 2.37 -5.19 2.69 -5.04 2.57 -4.88 2.3 -4.73 2.76 -4.58 2.72 -4.43 2.58 -4.27 2.42 -4.12 2.75 -3.97 2.52 -3.82 2.87 -3.66 2.72 -3.51 2.69 -3.36 2.47 -3.2 2.74 -3.05 2.69 -2.9 2.35 -2.75 2.87 -2.59 2.33 -2.44 2.64 -2.29 2.79 -2.14 3.31 -1.98 3.03 -1.83 2.89 -1.68 3.17 -1.53 2.75 -1.37 3.13 -1.22 3.36 -1.07 3.06 -0.92 3.24 -0.76 2.92 -0.61 3.08 -0.46 3.06 -0.31 3.5 -0.15 2.84 0 3.19 0.15 3.05 0.31 3.32 0.46 3.16 0.61 3.24 0.76 3.33 0.92 3.24 1.07 3.64 1.22 2.8 1.37 3.03 1.53 3.4 1.68 3.51 1.83 3.06 1.98 3.44 2.14 3.61 2.29 3.34 2.44 3.3 2.59 3.54 2.75 3.58 2.9 3.02 3.05 3.62 3.2 3.49 3.36 3.45 3.51 3.54 3.66 3.81 3.82 3.71 3.97 3.69 4.12 3.65 4.27 3.84 4.43 3.74 4.58 3.77 4.73 3.92 4.88 3.64 5.04 3.7 5.19 3.77 5.34 3.59 5.49 4.05 5.65 4.03 5.8 4.01 5.95 4.13 6.1 3.61 6.26 4.07 6.41 3.97 6.56 3.84 6.72 3.83 6.87 3.73 7.02 4.06 7.17 3.91 7.33 3.65 7.48 4.04 7.63 3.59 7.78 3.76 7.94 3.91 8.09 3.69 8.24 3.67 8.39 4.27 8.55 3.82 8.7 4.31 8.85 4.17 9 3.96 9.16 4.34 9.31 4.06 9.46 4.3 9.61 4.46 9.77 4.07 9.92 4.21 10.07 4.62 10.23 4.61 10.38 4.47 10.53 4.43 10.68 4.33 10.84 4.18 10.99 4.17 11.14 4.39 11.29 4.35 11.45 4.27 11.6 4.24 11.75 4.62 11.9 4.27 12.06 4.32 12.21 4.29 12.36 4.45 12.51 4.41 12.67 4.6 12.82 4.24 12.97 4.99 13.13 4.18 13.28 4.73 13.43 4.49 13.58 4.54 13.74 4.24 13.89 4.54 14.04 4.83 14.19 4.36 14.35 4.53 14.5 4.88 14.65 4.85 14.8 5.14 14.96 4.51 15.11 4.78 15.26 5.21 15.41 4.82 15.57 4.53 15.72 4.59 15.87 4.66 16.02 4.64 16.18 4.34 16.33 4.25 16.48 4.4 16.64 4.77 16.79 4.65 16.94 4.31 17.09 4.82 17.25 4.88 17.4 5.34 17.55 4.45 17.7 4.88 17.86 4.51 18.01 4.73 18.16 5.04 18.31 4.96 18.47 4.92 18.62 4.46 18.77 5.13 18.92 5.1 19.08 5.14 19.23 4.89 19.38 5.31 19.54 4.56 19.69 4.96 19.84 4.87 19.99 5.21 20.15 4.79 20.3 5.1 20.45 4.87 20.6 5.31 20.76 5.27 20.91 5.47 21.06 4.93 21.21 5.04 21.37 4.74 21.52 5.2 21.67 4.93 21.82 5.42 21.98 5.1 22.13 5.19 22.28 5.03 22.43 5.43 22.59 4.82 22.74 5.18 22.89 5.22 23.05 4.94 23.2 5.24 23.35 5.61 23.5 5.36 23.66 5.01 23.81 5.16 23.96 5.25 24.11 5.41 24.27 5.64 24.42 5.34 24.57 5.66 24.72 5.44 24.88 5.45 25.03 5.72 25.18 5.29 25.33 5.84 25.49 5.65 25.64 5.22 25.79 5.47 25.95 5.85 26.1 5.41 26.25 5.51 26.4 5.05 26.56 5.31 26.71 5.25 26.86 5.45 27.01 5.87 27.17 5.58 27.32 5 27.47 5.78 27.62 5.52 27.78 5.81 27.93 5.66 28.08 5.6 28.23 5.66 28.39 5.98 28.54 5.39 28.69 5.8 28.84 5.48 29 5.48 29.15 5.05 29.3 5.45 29.46 5.66 29.61 5.83 29.76 6 29.91 6.08 30.07 5.89 30.22 5.15 30.37 5.69 30.52 6.03 30.68 5.96 30.83 6.06 30.98 5.45 31.13 6.18 31.29 5.09 31.44 5.71 31.59 5.64 31.74 5.65 31.9 5.64 32.05 5.62 32.2 5.91 32.36 5.8 32.51 5.37 32.66 5.4 32.81 5.63 32.97 5.69 33.12 5.99 33.27 5.96 33.42 5.56 33.58 5.46 33.73 6.34 33.88 5.96 34.03 5.88 34.19 5.84 34.34 5.53 34.49 5.97 34.64 6.09 34.8 6.24 34.95 6.25 35.1 6.25 35.25 6.25 35.41 5.99 35.56 5.73 35.71 5.77 35.87 6.19 36.02 6.02 36.17 5.38 36.32 6.07 36.48 6.16 36.63 5.83 36.78 5.96 36.93 6.4 37.09 6.05 37.24 5.95 37.39 6.06 37.54 5.84 37.7 6.47 37.85 6.28 38 6.18 38.15 5.83 38.31 6.33 38.46 6.4 38.61 6.67 38.77 6.21 38.92 6.17 39.07 6.13 39.22 6.12 39.38 6.04 39.53 6.35 39.68 6.02 39.83 6.34 39.99 6.71 40.14 5.92 40.29 5.85 40.44 6.23 40.6 6.52 40.75 5.89 40.9 6.38 41.05 5.47 41.21 6.1 41.36 6.61 41.51 7.02 41.66 6.09 41.82 6.37 41.97 6.16 42.12 6.71 42.28 6.3 42.43 6.53 42.58 5.87 42.73 6.34 42.89 6.31 43.04 6.66 43.19 6.51 43.34 6.6 43.5 6.69 43.65 6.87 43.8 7.08 43.95 6.23 44.11 6.79 44.26 6.23 44.41 5.83 44.56 6.3 44.72 6.23 44.87 6.56 45.02 6.23 45.18 6.2 45.33 6.58 45.48 7.09 45.63 7 45.79 6.16 45.94 6.82 46.09 6.61 46.24 7.15 46.4 6.54 46.55 6.99 46.7 6.06 46.85 6.21 47.01 6.24 47.16 6.27 47.31 6.4 47.46 6.58 47.62 6.97 47.77 6.37 47.92 6.34 48.07 6.81 48.23 6.17 48.38 7 48.53 6.26 48.69 6.22 48.84 6.4 48.99 6.23 49.14 6.85 49.3 6.52 49.45 6.13 49.6 6.29 49.75 7.03 49.91 6.76 50.06 6.75 50.21 6.65 50.36 6.66 50.52 6.63 50.67 6.84 50.82 6.61 50.97 7.15 51.13 6.95 51.28 7.23 51.43 6.45 51.59 6.52 51.74 7.13 51.89 6.56 52.04 6.81 52.2 7.26 52.35 6.4 52.5 6.82 52.65 6.63 52.81 7.22 52.96 6.46 53.11 6.73 53.26 6.79 53.42 6.21 53.57 6.61 53.72 6.98 53.87 6.56 54.03 6.6 54.18 6.71 54.33 6.52 54.48 6.84 54.64 6.73 54.79 6.85 54.94 6.68 55.1 6.8 55.25 7.06 55.4 7.24 55.55 6.82 55.71 7.39" class="primitive"/>
            </g>
          </g>
        </g>
      </g>
    </g>
  </g>
  <g class="guide ylabels" font-size="2.82" font-family="'PT Sans Caption','Helvetica Neue','Helvetica',sans-serif" fill="#6C606B" id="img-05fa0624-24">
    <g transform="translate(20.3,80.32)" id="img-05fa0624-25">
      <g class="primitive">
        <text text-anchor="end" dy="0.35em">0</text>
      </g>
    </g>
    <g transform="translate(20.3,63.39)" id="img-05fa0624-26">
      <g class="primitive">
        <text text-anchor="end" dy="0.35em">1000</text>
      </g>
    </g>
    <g transform="translate(20.3,46.46)" id="img-05fa0624-27">
      <g class="primitive">
        <text text-anchor="end" dy="0.35em">2000</text>
      </g>
    </g>
    <g transform="translate(20.3,29.54)" id="img-05fa0624-28">
      <g class="primitive">
        <text text-anchor="end" dy="0.35em">3000</text>
      </g>
    </g>
    <g transform="translate(20.3,12.61)" id="img-05fa0624-29">
      <g class="primitive">
        <text text-anchor="end" dy="0.35em">4000</text>
      </g>
    </g>
  </g>
  <g font-size="3.88" font-family="'PT Sans','Helvetica Neue','Helvetica',sans-serif" fill="#564A55" stroke="#000000" stroke-opacity="0.000" id="img-05fa0624-30">
    <g transform="translate(8.81,44.46)" id="img-05fa0624-31">
      <g class="primitive">
        <text text-anchor="middle" dy="0.35em" transform="rotate(-90,0, 2)">Flowing Pressure (psig)</text>
      </g>
    </g>
  </g>
  <g font-size="3.88" font-family="'PT Sans','Helvetica Neue','Helvetica',sans-serif" fill="#564A55" stroke="#000000" stroke-opacity="0.000" id="img-05fa0624-32">
    <g transform="translate(84.35,5)" id="img-05fa0624-33">
      <g class="primitive">
        <text text-anchor="middle" dy="0.6em">FBHP Over Time</text>
      </g>
    </g>
  </g>
</g>
<defs>
  <clipPath id="img-05fa0624-4">
    <path d="M21.31,10.61 L 147.4 10.61 147.4 82.32 21.31 82.32" />
  </clipPath>
</defs>
</svg>
