<?xml version="1.0" encoding="UTF-8"?>
<svg xmlns="http://www.w3.org/2000/svg"
     xmlns:xlink="http://www.w3.org/1999/xlink"
     xmlns:gadfly="http://www.gadflyjl.org/ns"
     version="1.2"
     width="152.4mm" height="101.6mm" viewBox="0 0 152.4 101.6"
     stroke="none"
     fill="#000000"
     stroke-width="0.3"
     font-size="3.88"
>
<defs>
  <marker id="arrow" markerWidth="15" markerHeight="7" refX="5" refY="3.5" orient="auto" markerUnits="strokeWidth">
    <path d="M0,0 L15,3.5 L0,7 z" stroke="context-stroke" fill="context-stroke"/>
  </marker>
</defs>
<g class="plotroot xscalable yscalable" id="img-d55aa35e-1">
  <g font-size="3.88" font-family="'PT Sans','Helvetica Neue','Helvetica',sans-serif" fill="#564A55" stroke="#000000" stroke-opacity="0.000" id="img-d55aa35e-2">
    <g transform="translate(84.35,89.99)">
      <g class="primitive">
        <text text-anchor="middle" dy="0.6em">Time (days)</text>
      </g>
    </g>
  </g>
  <g class="guide xlabels" font-size="2.82" font-family="'PT Sans Caption','Helvetica Neue','Helvetica',sans-serif" fill="#6C606B" id="img-d55aa35e-3">
    <g transform="translate(23.31,83.32)">
      <g class="primitive">
        <text text-anchor="middle" dy="0.6em">0</text>
      </g>
    </g>
    <g transform="translate(53.83,83.32)">
      <g class="primitive">
        <text text-anchor="middle" dy="0.6em">200</text>
      </g>
    </g>
    <g transform="translate(84.35,83.32)">
      <g class="primitive">
        <text text-anchor="middle" dy="0.6em">400</text>
      </g>
    </g>
    <g transform="translate(114.88,83.32)">
      <g class="primitive">
        <text text-anchor="middle" dy="0.6em">600</text>
      </g>
    </g>
    <g transform="translate(145.4,83.32)">
      <g class="primitive">
        <text text-anchor="middle" dy="0.6em">800</text>
      </g>
    </g>
  </g>
  <g clip-path="url(#img-d55aa35e-4)">
    <g id="img-d55aa35e-5">
      <g pointer-events="visible" fill="#000000" fill-opacity="0.000" stroke="#000000" stroke-opacity="0.000" class="guide background" id="img-d55aa35e-6">
        <g transform="translate(84.35,46.46)" id="img-d55aa35e-7">
          <path d="M-63.05,-35.85 L 63.05 -35.85 63.05 35.85 -63.05 35.85 z" class="primitive"/>
        </g>
      </g>
      <g class="guide ygridlines xfixed" stroke-dasharray="0.5,0.5" stroke-width="0.2" stroke="#D0D0E0" id="img-d55aa35e-8">
        <g transform="translate(84.35,80.32)" id="img-d55aa35e-9">
          <path fill="none" d="M-63.05,0 L 63.05 0" class="primitive"/>
        </g>
        <g transform="translate(84.35,63.39)" id="img-d55aa35e-10">
          <path fill="none" d="M-63.05,0 L 63.05 0" class="primitive"/>
        </g>
        <g transform="translate(84.35,46.46)" id="img-d55aa35e-11">
          <path fill="none" d="M-63.05,0 L 63.05 0" class="primitive"/>
        </g>
        <g transform="translate(84.35,29.54)" id="img-d55aa35e-12">
          <path fill="none" d="M-63.05,0 L 63.05 0" class="primitive"/>
        </g>
        <g transform="translate(84.35,12.61)" id="img-d55aa35e-13">
          <path fill="none" d="M-63.05,0 L 63.05 0" class="primitive"/>
        </g>
      </g>
      <g class="guide xgridlines yfixed" stroke-dasharray="0.5,0.5" stroke-width="0.2" stroke="#D0D0E0" id="img-d55aa35e-14">
        <g transform="translate(23.31,46.46)" id="img-d55aa35e-15">
          <path fill="none" d="M0,-35.85 L 0 35.85" class="primitive"/>
        </g>
        <g transform="translate(53.83,46.46)" id="img-d55aa35e-16">
          <path fill="none" d="M0,-35.85 L 0 35.85" class="primitive"/>
        </g>
        <g transform="translate(84.35,46.46)" id="img-d55aa35e-17">
          <path fill="none" d="M0,-35.85 L 0 35.85" class="primitive"/>
        </g>
        <g transform="translate(114.88,46.46)" id="img-d55aa35e-18">
          <path fill="none" d="M0,-35.85 L 0 35.85" class="primitive"/>
        </g>
        <g transform="translate(145.4,46.46)" id="img-d55aa35e-19">
          <path fill="none" d="M0,-35.85 L 0 35.85" class="primitive"/>
        </g>
      </g>
      <g class="plotpanel" id="img-d55aa35e-20">
        <metadata>
          <boundingbox value="21.30500000000002mm 10.611666666666665mm 126.09499999999998mm 71.70333333333333mm"/>
          <unitbox value="-13.10454973586142 4118.162572005317 826.2090994717229 -4236.325144010634"/>
        </metadata>
        <g stroke-width="0.3" fill="#000000" fill-opacity="0.000" class="geometry" id="img-d55aa35e-21">
          <g class="color_RGB{N0f8}(0.502,0.0,0.502)" stroke-dasharray="none" stroke="#800080" id="img-d55aa35e-22">
            <g transform="translate(79.01,62.85)" id="img-d55aa35e-23">
              <path fill="none" d="M-55.71,-36.93 L -55.55 -36.2 -55.4 -35.5 -55.25 -34.74 -55.1 -33.94 -54.94 -33.22 -54.79 -32.53 -54.64 -31.68 -54.48 -31 -54.33 -30.35 -54.18 -29.81 -54.03 -29.21 -53.87 -28.5 -53.72 -27.97 -53.57 -27.48 -53.42 -26.83 -53.26 -26.41 -53.11 -25.87 -52.96 -25.35 -52.81 -24.61 -52.65 -24.3 -52.5 -23.85 -52.35 -23.34 -52.2 -22.91 -52.04 -22.51 -51.89 -22.17 -51.74 -21.76 -51.59 -21.45 -51.43 -20.92 -51.28 -20.74 -51.13 -20.23 -50.97 -19.89 -50.82 -19.49 -50.67 -19.29 -50.52 -19.06 -50.36 -18.43 -50.21 -18.17 -50.06 -17.95 -49.91 -17.62 -49.75 -17.21 -49.6 -17.09 -49.45 -16.69 -49.3 -16.58 -49.14 -16.23 -48.99 -16.04 -48.84 -15.84 -48.69 -15.57 -48.53 -15.25 -48.38 -15.11 -48.23 -14.83 -48.07 -14.57 -47.92 -14.3 -47.77 -14.26 -47.62 -14.03 -47.46 -13.74 -47.31 -13.77 -47.16 -13.53 -47.01 -13.25 -46.85 -13.1 -46.7 -12.9 -46.55 -12.81 -46.4 -12.73 -46.24 -12.33 -46.09 -12.29 -45.94 -12.26 -45.79 -12.06 -45.63 -11.81 -45.48 -11.73 -45.33 -11.51 -45.18 -11.51 -45.02 -11.44 -44.87 -11.16 -44.72 -11.13 -44.56 -10.82 -44.41 -10.93 -44.26 -10.67 -44.11 -10.57 -43.95 -10.4 -43.8 -10.49 -43.65 -10.25 -43.5 -10.28 -43.34 -9.93 -43.19 -9.94 -43.04 -9.73 -42.89 -9.73 -42.73 -9.51 -42.58 -9.4 -42.43 -9.36 -42.28 -9.19 -42.12 -9.05 -41.97 -8.89 -41.82 -9.11 -41.66 -8.64 -41.51 -8.62 -41.36 -8.63 -41.21 -8.66 -41.05 -8.34 -40.9 -8.32 -40.75 -8.22 -40.6 -8.19 -40.44 -7.92 -40.29 -7.78 -40.14 -7.84 -39.99 -7.7 -39.83 -7.65 -39.68 -7.62 -39.53 -7.41 -39.38 -7.26 -39.22 -7.16 -39.07 -7.12 -38.92 -7.13 -38.77 -7.08 -38.61 -6.8 -38.46 -6.89 -38.31 -6.72 -38.15 -6.49 -38 -6.52 -37.85 -6.52 -37.7 -6.55 -37.54 -6.32 -37.39 -6.15 -37.24 -6.1 -37.09 -5.95 -36.93 -5.99 -36.78 -5.82 -36.63 -5.88 -36.48 -5.69 -36.32 -5.47 -36.17 -5.48 -36.02 -5.55 -35.87 -5.17 -35.71 -5.49 -35.56 -5.28 -35.41 -5.23 -35.25 -5.19 -35.1 -4.86 -34.95 -5.01 -34.8 -5 -34.64 -4.82 -34.49 -4.76 -34.34 -4.57 -34.19 -4.75 -34.03 -4.63 -33.88 -4.44 -33.73 -4.54 -33.58 -4.15 -33.42 -4.19 -33.27 -4.39 -33.12 -4.09 -32.97 -3.9 -32.81 -4.12 -32.66 -3.9 -32.51 -3.79 -32.36 -3.81 -32.2 -3.83 -32.05 -3.63 -31.9 -3.66 -31.74 -3.4 -31.59 -3.59 -31.44 -3.23 -31.29 -3.32 -31.13 -3.35 -30.98 -3.28 -30.83 -3.26 -30.68 -3.24 -30.52 -3.29 -30.37 -2.98 -30.22 -3.02 -30.07 -3.16 -29.91 -3.03 -29.76 -2.83 -29.61 -2.67 -29.46 -2.79 -29.3 -2.66 -29.15 -2.39 -29 -2.56 -28.84 -2.61 -28.69 -2.42 -28.54 -2.36 -28.39 -2.33 -28.23 -2.45 -28.08 -2.12 -27.93 -2.22 -27.78 -2.17 -27.62 -2.23 -27.47 -2.24 -27.32 -2.33 -27.17 -2.01 -27.01 -1.89 -26.86 -1.77 -26.71 -2.18 -26.56 -1.72 -26.4 -1.92 -26.25 -1.95 -26.1 -1.84 -25.95 -1.47 -25.79 -1.94 -25.64 -1.52 -25.49 -1.66 -25.33 -1.77 -25.18 -1.36 -25.03 -1.55 -24.88 -1.21 -24.72 -1.31 -24.57 -1.45 -24.42 -1.07 -24.27 -1.23 -24.11 -1.33 -23.96 -1.22 -23.81 -0.97 -23.66 -1.04 -23.5 -1.19 -23.35 -1 -23.2 -0.94 -23.05 -0.72 -22.89 -0.84 -22.74 -0.84 -22.59 -0.76 -22.43 -0.82 -22.28 -0.66 -22.13 -0.68 -21.98 -0.49 -21.82 -1.02 -21.67 -0.64 -21.52 -0.78 -21.37 -0.37 -21.21 -0.52 -21.06 -0.55 -20.91 -0.42 -20.76 -0.25 -20.6 -0.32 -20.45 -0.29 -20.3 -0.04 -20.15 0.19 -19.99 -0.28 -19.84 -0.16 -19.69 0.03 -19.54 -0.07 -19.38 -0.04 -19.23 -0.08 -19.08 0.01 -18.92 0.41 -18.77 0.3 -18.62 0.38 -18.47 -0.02 -18.31 0.55 -18.16 0.44 -18.01 0.41 -17.86 0.56 -17.7 0.49 -17.55 0.26 -17.4 0.25 -17.25 0.25 -17.09 0.61 -16.94 0.45 -16.79 0.59 -16.64 0.7 -16.48 0.64 -16.33 0.62 -16.18 0.7 -16.02 0.77 -15.87 0.72 -15.72 0.62 -15.57 1.08 -15.41 1.01 -15.26 1.03 -15.11 0.74 -14.96 0.85 -14.8 0.88 -14.65 1.24 -14.5 0.81 -14.35 1.15 -14.19 1.01 -14.04 1.07 -13.89 1.47 -13.74 1.22 -13.58 1.06 -13.43 1.23 -13.28 1.57 -13.13 1.4 -12.97 1.39 -12.82 1.15 -12.67 1.3 -12.51 1.1 -12.36 1.41 -12.21 1.36 -12.06 1.34 -11.9 1.47 -11.75 1.54 -11.6 1.63 -11.45 1.64 -11.29 1.94 -11.14 1.74 -10.99 1.89 -10.84 1.87 -10.68 2.27 -10.53 1.78 -10.38 1.74 -10.23 1.79 -10.07 1.57 -9.92 1.81 -9.77 1.83 -9.61 1.87 -9.46 1.65 -9.31 1.79 -9.16 2.32 -9 2.2 -8.85 1.83 -8.7 1.88 -8.55 2.02 -8.39 2.24 -8.24 2.03 -8.09 1.89 -7.94 2.15 -7.78 2.2 -7.63 2.09 -7.48 1.97 -7.33 2.4 -7.17 1.94 -7.02 2.34 -6.87 2.55 -6.72 2.52 -6.56 2.32 -6.41 2.36 -6.26 2.14 -6.1 2.51 -5.95 2.24 -5.8 2.47 -5.65 2.34 -5.49 2.32 -5.34 2.46 -5.19 2.37 -5.04 2.55 -4.88 2.5 -4.73 2.32 -4.58 2.51 -4.43 2.46 -4.27 2.51 -4.12 2.57 -3.97 2.99 -3.82 2.74 -3.66 2.48 -3.51 2.75 -3.36 2.44 -3.2 3.01 -3.05 3.11 -2.9 2.84 -2.75 2.69 -2.59 3.18 -2.44 2.88 -2.29 2.65 -2.14 2.57 -1.98 3.03 -1.83 2.72 -1.68 3.01 -1.53 2.82 -1.37 2.49 -1.22 2.83 -1.07 3.03 -0.92 3.15 -0.76 3.42 -0.61 3.12 -0.46 2.95 -0.31 3.07 -0.15 3.09 0 3.6 0.15 3.52 0.31 3.33 0.46 3.17 0.61 3.3 0.76 3.38 0.92 3.28 1.07 3.16 1.22 3.08 1.37 3.15 1.53 3.48 1.68 3.34 1.83 3.09 1.98 2.85 2.14 3.4 2.29 3.35 2.44 2.85 2.59 3.19 2.75 3.21 2.9 3.77 3.05 3.53 3.2 3.36 3.36 3.65 3.51 3.39 3.66 3.53 3.82 3.28 3.97 3.29 4.12 3.66 4.27 3.69 4.43 3.34 4.58 3.56 4.73 3.76 4.88 3.56 5.04 3.45 5.19 3.62 5.34 4.15 5.49 3.54 5.65 3.8 5.8 4.12 5.95 3.47 6.1 3.65 6.26 4.08 6.41 4.19 6.56 3.45 6.72 4.04 6.87 3.67 7.02 4.49 7.17 3.87 7.33 4.33 7.48 3.76 7.63 4.18 7.78 3.95 7.94 4.54 8.09 4.15 8.24 3.98 8.39 4 8.55 3.85 8.7 3.72 8.85 4.4 9 3.98 9.16 4.39 9.31 4.34 9.46 4.27 9.61 4.23 9.77 4.42 9.92 4.55 10.07 4.24 10.23 3.86 10.38 4.13 10.53 4.15 10.68 4.4 10.84 4.45 10.99 3.65 11.14 4.42 11.29 3.99 11.45 4.97 11.6 4.18 11.75 4.61 11.9 4.15 12.06 4.69 12.21 4.52 12.36 4.14 12.51 4.42 12.67 4.12 12.82 4.5 12.97 4.47 13.13 4.63 13.28 4.67 13.43 4.19 13.58 4.2 13.74 4.45 13.89 4.73 14.04 4.72 14.19 4.75 14.35 4.29 14.5 4.6 14.65 4.31 14.8 4.72 14.96 4.64 15.11 4.63 15.26 4.67 15.41 4.69 15.57 4.62 15.72 4.43 15.87 4.3 16.02 4.79 16.18 4.71 16.33 5 16.48 4.32 16.64 4.38 16.79 4.5 16.94 4.59 17.09 4.78 17.25 4.96 17.4 4.75 17.55 4.36 17.7 5.34 17.86 4.99 18.01 4.88 18.16 4.85 18.31 4.91 18.47 4.83 18.62 4.8 18.77 5.49 18.92 4.77 19.08 5.06 19.23 4.79 19.38 5.32 19.54 4.96 19.69 5.46 19.84 5.57 19.99 5.32 20.15 5.05 20.3 4.97 20.45 5.15 20.6 4.66 20.76 5.49 20.91 5.04 21.06 5.02 21.21 5.06 21.37 5.66 21.52 4.71 21.67 4.97 21.82 4.9 21.98 5.18 22.13 5.57 22.28 5.37 22.43 4.81 22.59 4.65 22.74 4.74 22.89 5.08 23.05 4.73 23.2 5.27 23.35 5.39 23.5 6 23.66 4.89 23.81 5.24 23.96 5.28 24.11 5.48 24.27 5.57 24.42 5.12 24.57 5.44 24.72 4.87 24.88 5.41 25.03 4.74 25.18 5.62 25.33 5.18 25.49 5.21 25.64 5.29 25.79 5.33 25.95 5.24 26.1 5.31 26.25 5.44 26.4 5.52 26.56 5.57 26.71 5.4 26.86 5.69 27.01 5.8 27.17 5.76 27.32 5.77 27.47 5.66 27.62 5.86 27.78 5.49 27.93 5.31 28.08 5.54 28.23 5.34 28.39 5.51 28.54 6.37 28.69 5.51 28.84 5.81 29 5.08 29.15 5.39 29.3 5.98 29.46 5.72 29.61 5.72 29.76 5.9 29.91 5.9 30.07 5.67 30.22 5.59 30.37 5.79 30.52 5.46 30.68 5.86 30.83 5.88 30.98 6.02 31.13 5.41 31.29 5.88 31.44 5.8 31.59 5.88 31.74 5.88 31.9 6.16 32.05 5.96 32.2 6.04 32.36 5.47 32.51 6.13 32.66 5.66 32.81 5.68 32.97 5.53 33.12 6.09 33.27 5.97 33.42 5.52 33.58 5.13 33.73 6.06 33.88 6.21 34.03 5.98 34.19 5.54 34.34 5.99 34.49 5.65 34.64 5.58 34.8 5.85 34.95 6.07 35.1 5.59 35.25 5.76 35.41 5.63 35.56 6.01 35.71 6.38 35.87 5.52 36.02 5.59 36.17 5.77 36.32 6.09 36.48 5.7 36.63 5.69 36.78 5.94 36.93 6.13 37.09 6.49 37.24 6.41 37.39 6.24 37.54 6.03 37.7 6.1 37.85 6.13 38 5.97 38.15 6.36 38.31 6.04 38.46 6.07 38.61 5.64 38.77 6.18 38.92 5.95 39.07 6.57 39.22 6.08 39.38 6.21 39.53 5.92 39.68 5.87 39.83 5.91 39.99 6.54 40.14 5.66 40.29 6.06 40.44 6.15 40.6 6.11 40.75 6.51 40.9 6.55 41.05 6.08 41.21 5.88 41.36 6.29 41.51 6.25 41.66 6.19 41.82 6.31 41.97 6.04 42.12 6.36 42.28 7.07 42.43 6.15 42.58 5.93 42.73 6.1 42.89 6.02 43.04 6.63 43.19 6.17 43.34 6.23 43.5 6.58 43.65 6.48 43.8 6.11 43.95 6.83 44.11 5.96 44.26 6.61 44.41 6.75 44.56 6.86 44.72 6.24 44.87 6.75 45.02 6.11 45.18 7.04 45.33 6.22 45.48 6.62 45.63 6.53 45.79 6.34 45.94 6.49 46.09 5.92 46.24 6.72 46.4 6.42 46.55 6.5 46.7 6.39 46.85 6.62 47.01 6.47 47.16 6.49 47.31 6.83 47.46 6.51 47.62 6.43 47.77 5.94 47.92 6.53 48.07 6.19 48.23 6.41 48.38 6.36 48.53 7.05 48.69 6.95 48.84 6.56 48.99 6.41 49.14 6.52 49.3 6.45 49.45 6.6 49.6 7.12 49.75 6.92 49.91 6.51 50.06 6.4 50.21 6.43 50.36 6.94 50.52 6.69 50.67 6.32 50.82 6.52 50.97 6.62 51.13 6.84 51.28 6.96 51.43 6.44 51.59 6.57 51.74 6.82 51.89 6.99 52.04 6.98 52.2 7.05 52.35 6.79 52.5 6.66 52.65 6.83 52.81 6.75 52.96 6.02 53.11 7.08 53.26 6.55 53.42 6.51 53.57 7.22 53.72 6.55 53.87 6.95 54.03 6.53 54.18 7.18 54.33 6.98 54.48 7.01 54.64 6.65 54.79 7.06 54.94 6.76 55.1 6.94 55.25 6.65 55.4 7.13 55.55 7.24 55.71 7.05" class="primitive"/>
            </g>
          </g>
        </g>
      </g>
    </g>
  </g>
  <g class="guide ylabels" font-size="2.82" font-family="'PT Sans Caption','Helvetica Neue','Helvetica',sans-serif" fill="#6C606B" id="img-d55aa35e-24">
    <g transform="translate(20.3,80.32)" id="img-d55aa35e-25">
      <g class="primitive">
        <text text-anchor="end" dy="0.35em">0</text>
      </g>
    </g>
    <g transform="translate(20.3,63.39)" id="img-d55aa35e-26">
      <g class="primitive">
        <text text-anchor="end" dy="0.35em">1000</text>
      </g>
    </g>
    <g transform="translate(20.3,46.46)" id="img-d55aa35e-27">
      <g class="primitive">
        <text text-anchor="end" dy="0.35em">2000</text>
      </g>
    </g>
    <g transform="translate(20.3,29.54)" id="img-d55aa35e-28">
      <g class="primitive">
        <text text-anchor="end" dy="0.35em">3000</text>
      </g>
    </g>
    <g transform="translate(20.3,12.61)" id="img-d55aa35e-29">
      <g class="primitive">
        <text text-anchor="end" dy="0.35em">4000</text>
      </g>
    </g>
  </g>
  <g font-size="3.88" font-family="'PT Sans','Helvetica Neue','Helvetica',sans-serif" fill="#564A55" stroke="#000000" stroke-opacity="0.000" id="img-d55aa35e-30">
    <g transform="translate(8.81,44.46)" id="img-d55aa35e-31">
      <g class="primitive">
        <text text-anchor="middle" dy="0.35em" transform="rotate(-90,0, 2)">Flowing Pressure (psig)</text>
      </g>
    </g>
  </g>
  <g font-size="3.88" font-family="'PT Sans','Helvetica Neue','Helvetica',sans-serif" fill="#564A55" stroke="#000000" stroke-opacity="0.000" id="img-d55aa35e-32">
    <g transform="translate(84.35,5)" id="img-d55aa35e-33">
      <g class="primitive">
        <text text-anchor="middle" dy="0.6em">FBHP Over Time</text>
      </g>
    </g>
  </g>
</g>
<defs>
  <clipPath id="img-d55aa35e-4">
    <path d="M21.31,10.61 L 147.4 10.61 147.4 82.32 21.31 82.32" />
  </clipPath>
</defs>
</svg>
