<?xml version="1.0" encoding="UTF-8"?>
<svg xmlns="http://www.w3.org/2000/svg"
     xmlns:xlink="http://www.w3.org/1999/xlink"
     xmlns:gadfly="http://www.gadflyjl.org/ns"
     version="1.2"
     width="152.4mm" height="101.6mm" viewBox="0 0 152.4 101.6"
     stroke="none"
     fill="#000000"
     stroke-width="0.3"
     font-size="3.88"
>
<defs>
  <marker id="arrow" markerWidth="15" markerHeight="7" refX="5" refY="3.5" orient="auto" markerUnits="strokeWidth">
    <path d="M0,0 L15,3.5 L0,7 z" stroke="context-stroke" fill="context-stroke"/>
  </marker>
</defs>
<g class="plotroot xscalable yscalable" id="img-be007ff1-1">
  <g font-size="3.88" font-family="'PT Sans','Helvetica Neue','Helvetica',sans-serif" fill="#564A55" stroke="#000000" stroke-opacity="0.000" id="img-be007ff1-2">
    <g transform="translate(84.35,89.99)">
      <g class="primitive">
        <text text-anchor="middle" dy="0.6em">Time (days)</text>
      </g>
    </g>
  </g>
  <g class="guide xlabels" font-size="2.82" font-family="'PT Sans Caption','Helvetica Neue','Helvetica',sans-serif" fill="#6C606B" id="img-be007ff1-3">
    <g transform="translate(23.31,83.32)">
      <g class="primitive">
        <text text-anchor="middle" dy="0.6em">0</text>
      </g>
    </g>
    <g transform="translate(53.83,83.32)">
      <g class="primitive">
        <text text-anchor="middle" dy="0.6em">200</text>
      </g>
    </g>
    <g transform="translate(84.35,83.32)">
      <g class="primitive">
        <text text-anchor="middle" dy="0.6em">400</text>
      </g>
    </g>
    <g transform="translate(114.88,83.32)">
      <g class="primitive">
        <text text-anchor="middle" dy="0.6em">600</text>
      </g>
    </g>
    <g transform="translate(145.4,83.32)">
      <g class="primitive">
        <text text-anchor="middle" dy="0.6em">800</text>
      </g>
    </g>
  </g>
  <g clip-path="url(#img-be007ff1-4)">
    <g id="img-be007ff1-5">
      <g pointer-events="visible" fill="#000000" fill-opacity="0.000" stroke="#000000" stroke-opacity="0.000" class="guide background" id="img-be007ff1-6">
        <g transform="translate(84.35,46.46)" id="img-be007ff1-7">
          <path d="M-63.05,-35.85 L 63.05 -35.85 63.05 35.85 -63.05 35.85 z" class="primitive"/>
        </g>
      </g>
      <g class="guide ygridlines xfixed" stroke-dasharray="0.5,0.5" stroke-width="0.2" stroke="#D0D0E0" id="img-be007ff1-8">
        <g transform="translate(84.35,80.32)" id="img-be007ff1-9">
          <path fill="none" d="M-63.05,0 L 63.05 0" class="primitive"/>
        </g>
        <g transform="translate(84.35,63.39)" id="img-be007ff1-10">
          <path fill="none" d="M-63.05,0 L 63.05 0" class="primitive"/>
        </g>
        <g transform="translate(84.35,46.46)" id="img-be007ff1-11">
          <path fill="none" d="M-63.05,0 L 63.05 0" class="primitive"/>
        </g>
        <g transform="translate(84.35,29.54)" id="img-be007ff1-12">
          <path fill="none" d="M-63.05,0 L 63.05 0" class="primitive"/>
        </g>
        <g transform="translate(84.35,12.61)" id="img-be007ff1-13">
          <path fill="none" d="M-63.05,0 L 63.05 0" class="primitive"/>
        </g>
      </g>
      <g class="guide xgridlines yfixed" stroke-dasharray="0.5,0.5" stroke-width="0.2" stroke="#D0D0E0" id="img-be007ff1-14">
        <g transform="translate(23.31,46.46)" id="img-be007ff1-15">
          <path fill="none" d="M0,-35.85 L 0 35.85" class="primitive"/>
        </g>
        <g transform="translate(53.83,46.46)" id="img-be007ff1-16">
          <path fill="none" d="M0,-35.85 L 0 35.85" class="primitive"/>
        </g>
        <g transform="translate(84.35,46.46)" id="img-be007ff1-17">
          <path fill="none" d="M0,-35.85 L 0 35.85" class="primitive"/>
        </g>
        <g transform="translate(114.88,46.46)" id="img-be007ff1-18">
          <path fill="none" d="M0,-35.85 L 0 35.85" class="primitive"/>
        </g>
        <g transform="translate(145.4,46.46)" id="img-be007ff1-19">
          <path fill="none" d="M0,-35.85 L 0 35.85" class="primitive"/>
        </g>
      </g>
      <g class="plotpanel" id="img-be007ff1-20">
        <metadata>
          <boundingbox value="21.30500000000002mm 10.611666666666665mm 126.09499999999998mm 71.70333333333333mm"/>
          <unitbox value="-13.10454973586142 4118.162572005317 826.2090994717229 -4236.325144010634"/>
        </metadata>
        <g stroke-width="0.3" fill="#000000" fill-opacity="0.000" class="geometry" id="img-be007ff1-21">
          <g class="color_RGB{N0f8}(0.502,0.0,0.502)" stroke-dasharray="none" stroke="#800080" id="img-be007ff1-22">
            <g transform="translate(79.01,62.88)" id="img-be007ff1-23">
              <path fill="none" d="M-55.71,-36.98 L -55.55 -36.17 -55.4 -35.48 -55.25 -34.7 -55.1 -33.98 -54.94 -33.33 -54.79 -32.69 -54.64 -31.79 -54.48 -31.16 -54.33 -30.39 -54.18 -29.88 -54.03 -29.2 -53.87 -28.6 -53.72 -28.03 -53.57 -27.41 -53.42 -26.73 -53.26 -26.36 -53.11 -25.84 -52.96 -25.4 -52.81 -24.73 -52.65 -24.3 -52.5 -23.84 -52.35 -23.41 -52.2 -23.02 -52.04 -22.64 -51.89 -22.19 -51.74 -21.77 -51.59 -21.38 -51.43 -20.94 -51.28 -20.58 -51.13 -20.1 -50.97 -19.89 -50.82 -19.61 -50.67 -19.22 -50.52 -18.85 -50.36 -18.45 -50.21 -18.18 -50.06 -17.9 -49.91 -17.65 -49.75 -17.25 -49.6 -17 -49.45 -16.77 -49.3 -16.58 -49.14 -16.32 -48.99 -16.1 -48.84 -15.81 -48.69 -15.49 -48.53 -15.22 -48.38 -15.13 -48.23 -14.78 -48.07 -14.48 -47.92 -14.42 -47.77 -14.3 -47.62 -14.15 -47.46 -13.84 -47.31 -13.57 -47.16 -13.47 -47.01 -13.24 -46.85 -13.01 -46.7 -13.14 -46.55 -12.81 -46.4 -12.55 -46.24 -12.36 -46.09 -12.32 -45.94 -12.28 -45.79 -12.01 -45.63 -11.92 -45.48 -11.89 -45.33 -11.7 -45.18 -11.5 -45.02 -11.41 -44.87 -11.17 -44.72 -11.23 -44.56 -10.89 -44.41 -10.75 -44.26 -10.76 -44.11 -10.52 -43.95 -10.47 -43.8 -10.32 -43.65 -10.19 -43.5 -10.15 -43.34 -10.03 -43.19 -9.69 -43.04 -9.8 -42.89 -9.6 -42.73 -9.6 -42.58 -9.26 -42.43 -9.47 -42.28 -9.14 -42.12 -9.02 -41.97 -9.01 -41.82 -8.81 -41.66 -8.89 -41.51 -8.58 -41.36 -8.44 -41.21 -8.4 -41.05 -8.2 -40.9 -8.24 -40.75 -8.17 -40.6 -8.17 -40.44 -8.03 -40.29 -7.87 -40.14 -7.84 -39.99 -7.78 -39.83 -7.6 -39.68 -7.35 -39.53 -7.55 -39.38 -7.19 -39.22 -7.16 -39.07 -7.22 -38.92 -7.35 -38.77 -6.86 -38.61 -6.95 -38.46 -6.88 -38.31 -6.78 -38.15 -6.82 -38 -6.55 -37.85 -6.25 -37.7 -6.49 -37.54 -6.27 -37.39 -6.43 -37.24 -6.26 -37.09 -6.13 -36.93 -6.06 -36.78 -5.77 -36.63 -5.74 -36.48 -5.72 -36.32 -5.78 -36.17 -5.62 -36.02 -5.7 -35.87 -5.48 -35.71 -5.35 -35.56 -5.3 -35.41 -5.07 -35.25 -4.99 -35.1 -4.95 -34.95 -5.03 -34.8 -4.81 -34.64 -4.96 -34.49 -4.84 -34.34 -4.55 -34.19 -4.54 -34.03 -4.63 -33.88 -4.49 -33.73 -4.33 -33.58 -4.5 -33.42 -4.31 -33.27 -4.07 -33.12 -4.22 -32.97 -4.06 -32.81 -3.97 -32.66 -4.1 -32.51 -3.99 -32.36 -3.83 -32.2 -3.82 -32.05 -3.88 -31.9 -3.67 -31.74 -3.75 -31.59 -3.49 -31.44 -3.61 -31.29 -3.44 -31.13 -3.44 -30.98 -3.4 -30.83 -3.33 -30.68 -3.29 -30.52 -3.34 -30.37 -3.05 -30.22 -3.12 -30.07 -2.88 -29.91 -3.16 -29.76 -2.86 -29.61 -2.98 -29.46 -2.54 -29.3 -2.87 -29.15 -2.68 -29 -2.5 -28.84 -2.67 -28.69 -2.45 -28.54 -2.61 -28.39 -2.29 -28.23 -2.43 -28.08 -2.32 -27.93 -2.32 -27.78 -2.36 -27.62 -1.99 -27.47 -2.09 -27.32 -2.27 -27.17 -2.04 -27.01 -1.9 -26.86 -1.82 -26.71 -1.82 -26.56 -2 -26.4 -1.76 -26.25 -1.71 -26.1 -1.82 -25.95 -1.45 -25.79 -1.62 -25.64 -1.36 -25.49 -1.51 -25.33 -1.46 -25.18 -1.4 -25.03 -1.45 -24.88 -1.15 -24.72 -1.32 -24.57 -1.22 -24.42 -1.32 -24.27 -1.09 -24.11 -1.06 -23.96 -1.03 -23.81 -0.95 -23.66 -0.99 -23.5 -1.12 -23.35 -0.99 -23.2 -1.25 -23.05 -0.94 -22.89 -1.14 -22.74 -0.77 -22.59 -0.94 -22.43 -0.71 -22.28 -0.82 -22.13 -0.91 -21.98 -0.55 -21.82 -0.68 -21.67 -0.88 -21.52 -0.51 -21.37 -0.52 -21.21 -0.51 -21.06 -0.3 -20.91 -0.39 -20.76 -0.32 -20.6 -0.4 -20.45 -0.31 -20.3 -0.22 -20.15 -0.04 -19.99 -0.29 -19.84 -0.05 -19.69 -0.15 -19.54 0.09 -19.38 0.22 -19.23 -0.1 -19.08 -0.2 -18.92 -0.03 -18.77 0.1 -18.62 0.3 -18.47 0.36 -18.31 0.43 -18.16 0.42 -18.01 0.01 -17.86 0.45 -17.7 0.01 -17.55 0.53 -17.4 0.4 -17.25 0.53 -17.09 0.42 -16.94 0.56 -16.79 0.53 -16.64 0.52 -16.48 0.64 -16.33 0.53 -16.18 0.67 -16.02 0.79 -15.87 0.84 -15.72 0.9 -15.57 0.9 -15.41 0.61 -15.26 0.94 -15.11 0.68 -14.96 1.32 -14.8 1.09 -14.65 1.09 -14.5 1.36 -14.35 0.93 -14.19 1.12 -14.04 1.17 -13.89 0.99 -13.74 1.1 -13.58 1.26 -13.43 1.19 -13.28 1.17 -13.13 1.25 -12.97 1.55 -12.82 1.23 -12.67 1.56 -12.51 1.37 -12.36 1.55 -12.21 1.39 -12.06 1.14 -11.9 1.23 -11.75 1.18 -11.6 1.17 -11.45 1.74 -11.29 1.46 -11.14 1.36 -10.99 1.46 -10.84 1.79 -10.68 1.48 -10.53 1.81 -10.38 1.89 -10.23 1.68 -10.07 1.87 -9.92 1.92 -9.77 1.96 -9.61 1.94 -9.46 2.03 -9.31 1.96 -9.16 1.87 -9 2.17 -8.85 1.87 -8.7 1.74 -8.55 1.61 -8.39 2.28 -8.24 1.94 -8.09 2.37 -7.94 2.16 -7.78 1.98 -7.63 2.17 -7.48 2.28 -7.33 2.1 -7.17 2.33 -7.02 1.79 -6.87 1.96 -6.72 2.29 -6.56 2.53 -6.41 2.51 -6.26 2.28 -6.1 2.61 -5.95 2.23 -5.8 2.49 -5.65 2.72 -5.49 2.41 -5.34 2.36 -5.19 2.34 -5.04 2.5 -4.88 2.82 -4.73 2.39 -4.58 2.5 -4.43 2.48 -4.27 2.54 -4.12 2.95 -3.97 2.7 -3.82 2.87 -3.66 3.15 -3.51 2.67 -3.36 2.82 -3.2 2.71 -3.05 2.7 -2.9 2.83 -2.75 2.65 -2.59 2.62 -2.44 2.68 -2.29 3.1 -2.14 2.96 -1.98 2.52 -1.83 2.99 -1.68 3.23 -1.53 2.91 -1.37 2.92 -1.22 3.06 -1.07 3.11 -0.92 2.92 -0.76 3.24 -0.61 3.19 -0.46 2.76 -0.31 2.95 -0.15 3.41 0 3.36 0.15 2.55 0.31 3.14 0.46 2.45 0.61 3.21 0.76 2.76 0.92 3.27 1.07 3.46 1.22 3.33 1.37 3.09 1.53 3.21 1.68 3.79 1.83 3.75 1.98 3.6 2.14 3.62 2.29 3.32 2.44 3.53 2.59 3.49 2.75 3.25 2.9 3.91 3.05 3.52 3.2 3.23 3.36 3.57 3.51 3.52 3.66 3.74 3.82 3.14 3.97 3.57 4.12 3.83 4.27 3.47 4.43 3.6 4.58 3.3 4.73 3.49 4.88 3.96 5.04 3.54 5.19 3.84 5.34 3.75 5.49 3.87 5.65 4.18 5.8 3.59 5.95 3.93 6.1 3.86 6.26 4.12 6.41 3.66 6.56 3.24 6.72 3.78 6.87 4.12 7.02 3.72 7.17 3.93 7.33 4.31 7.48 4.08 7.63 4.15 7.78 4.18 7.94 4.07 8.09 4 8.24 4.05 8.39 4 8.55 3.8 8.7 4.22 8.85 3.85 9 4.28 9.16 4.45 9.31 4.23 9.46 4.43 9.61 4.43 9.77 4.55 9.92 4.03 10.07 4.2 10.23 3.91 10.38 4.56 10.53 4.34 10.68 4.14 10.84 4.01 10.99 4.49 11.14 3.99 11.29 3.77 11.45 4.63 11.6 4.29 11.75 4.15 11.9 4.53 12.06 4.34 12.21 3.71 12.36 4.34 12.51 4.49 12.67 4.32 12.82 4.44 12.97 4.55 13.13 4.71 13.28 4.27 13.43 5.11 13.58 4.46 13.74 4.56 13.89 4.66 14.04 4.62 14.19 4.51 14.35 4.58 14.5 4.54 14.65 4.7 14.8 4.53 14.96 4.79 15.11 4.57 15.26 4.71 15.41 4.6 15.57 4.31 15.72 4.93 15.87 4.5 16.02 4.8 16.18 5.44 16.33 4.98 16.48 5.16 16.64 4.59 16.79 4.27 16.94 4.92 17.09 4.17 17.25 4.96 17.4 4.81 17.55 5.39 17.7 4.57 17.86 5.07 18.01 5.06 18.16 4.47 18.31 4.62 18.47 4.97 18.62 5.03 18.77 4.83 18.92 5.27 19.08 4.81 19.23 4.81 19.38 5.59 19.54 4.82 19.69 5.13 19.84 5.04 19.99 5.38 20.15 4.82 20.3 4.76 20.45 5.04 20.6 5.23 20.76 5.02 20.91 5.21 21.06 4.85 21.21 4.95 21.37 5.49 21.52 5.28 21.67 5.12 21.82 5.23 21.98 4.75 22.13 5.14 22.28 4.89 22.43 5.18 22.59 5.27 22.74 5.53 22.89 5.2 23.05 5.19 23.2 5.02 23.35 5.4 23.5 5.61 23.66 5.5 23.81 5.45 23.96 5.61 24.11 5.04 24.27 5.14 24.42 5.54 24.57 5.43 24.72 5.13 24.88 5.45 25.03 5.85 25.18 5.37 25.33 5.27 25.49 5.35 25.64 5.33 25.79 6.01 25.95 5.6 26.1 4.92 26.25 5.43 26.4 5.74 26.56 5.7 26.71 5.42 26.86 5.53 27.01 5.87 27.17 5.04 27.32 5.26 27.47 5.88 27.62 5.88 27.78 5.68 27.93 5.85 28.08 5.8 28.23 5.24 28.39 5.49 28.54 5.38 28.69 5.54 28.84 5.83 29 5.12 29.15 5.1 29.3 5.71 29.46 6.09 29.61 5.84 29.76 6.16 29.91 5.67 30.07 5.84 30.22 5.56 30.37 5.3 30.52 5.5 30.68 5.62 30.83 5.66 30.98 5.69 31.13 5.47 31.29 5.76 31.44 5.67 31.59 5.88 31.74 5.2 31.9 5.32 32.05 5.8 32.2 5.81 32.36 6.23 32.51 5.79 32.66 5.7 32.81 5.46 32.97 5.95 33.12 6.35 33.27 5.97 33.42 5.5 33.58 5.58 33.73 5.77 33.88 5.85 34.03 6.14 34.19 6.16 34.34 6.13 34.49 5.14 34.64 5.42 34.8 5.96 34.95 5.72 35.1 6.32 35.25 6.11 35.41 5.72 35.56 5.56 35.71 5.76 35.87 6.47 36.02 5.84 36.17 6.15 36.32 5.22 36.48 6.27 36.63 5.82 36.78 5.91 36.93 6.21 37.09 5.66 37.24 5.99 37.39 5.98 37.54 6.25 37.7 5.72 37.85 6.14 38 6.23 38.15 6.32 38.31 5.88 38.46 6.31 38.61 5.97 38.77 5.76 38.92 6.71 39.07 5.62 39.22 6.47 39.38 5.58 39.53 6.5 39.68 6.62 39.83 6.28 39.99 6.3 40.14 6.67 40.29 6.85 40.44 6.28 40.6 6.77 40.75 5.66 40.9 6.58 41.05 6.26 41.21 6.27 41.36 5.92 41.51 6.23 41.66 6.48 41.82 6.2 41.97 6.17 42.12 6.47 42.28 6.23 42.43 6.67 42.58 6.47 42.73 6.93 42.89 6.71 43.04 6.04 43.19 6.2 43.34 6.67 43.5 6.22 43.65 6.21 43.8 6.67 43.95 6.47 44.11 6.08 44.26 5.79 44.41 6.99 44.56 6.51 44.72 6.58 44.87 6.37 45.02 6.43 45.18 6.18 45.33 5.9 45.48 6.6 45.63 6.34 45.79 6.52 45.94 7.3 46.09 7.04 46.24 6.77 46.4 6.37 46.55 6.35 46.7 5.95 46.85 6.85 47.01 6.64 47.16 6.52 47.31 6.65 47.46 6.85 47.62 6.51 47.77 6.21 47.92 6.8 48.07 6.4 48.23 6.75 48.38 6.67 48.53 6.48 48.69 6.26 48.84 6.46 48.99 6.66 49.14 6.48 49.3 6.62 49.45 6.11 49.6 7.02 49.75 6.63 49.91 6.53 50.06 6.53 50.21 6.55 50.36 6.53 50.52 6.69 50.67 6.05 50.82 6.17 50.97 6.83 51.13 7.24 51.28 6.52 51.43 6.7 51.59 6.76 51.74 7.2 51.89 6.73 52.04 6.45 52.2 6.47 52.35 7.02 52.5 7.09 52.65 7.16 52.81 7.1 52.96 7.17 53.11 6.34 53.26 6.52 53.42 6.56 53.57 6.8 53.72 6.52 53.87 7.12 54.03 6.59 54.18 6.69 54.33 7.03 54.48 6.33 54.64 6.63 54.79 6.43 54.94 7.4 55.1 6.39 55.25 6.91 55.4 6.82 55.55 6.97 55.71 7.15" class="primitive"/>
            </g>
          </g>
        </g>
      </g>
    </g>
  </g>
  <g class="guide ylabels" font-size="2.82" font-family="'PT Sans Caption','Helvetica Neue','Helvetica',sans-serif" fill="#6C606B" id="img-be007ff1-24">
    <g transform="translate(20.3,80.32)" id="img-be007ff1-25">
      <g class="primitive">
        <text text-anchor="end" dy="0.35em">0</text>
      </g>
    </g>
    <g transform="translate(20.3,63.39)" id="img-be007ff1-26">
      <g class="primitive">
        <text text-anchor="end" dy="0.35em">1000</text>
      </g>
    </g>
    <g transform="translate(20.3,46.46)" id="img-be007ff1-27">
      <g class="primitive">
        <text text-anchor="end" dy="0.35em">2000</text>
      </g>
    </g>
    <g transform="translate(20.3,29.54)" id="img-be007ff1-28">
      <g class="primitive">
        <text text-anchor="end" dy="0.35em">3000</text>
      </g>
    </g>
    <g transform="translate(20.3,12.61)" id="img-be007ff1-29">
      <g class="primitive">
        <text text-anchor="end" dy="0.35em">4000</text>
      </g>
    </g>
  </g>
  <g font-size="3.88" font-family="'PT Sans','Helvetica Neue','Helvetica',sans-serif" fill="#564A55" stroke="#000000" stroke-opacity="0.000" id="img-be007ff1-30">
    <g transform="translate(8.81,44.46)" id="img-be007ff1-31">
      <g class="primitive">
        <text text-anchor="middle" dy="0.35em" transform="rotate(-90,0, 2)">Flowing Pressure (psig)</text>
      </g>
    </g>
  </g>
  <g font-size="3.88" font-family="'PT Sans','Helvetica Neue','Helvetica',sans-serif" fill="#564A55" stroke="#000000" stroke-opacity="0.000" id="img-be007ff1-32">
    <g transform="translate(84.35,5)" id="img-be007ff1-33">
      <g class="primitive">
        <text text-anchor="middle" dy="0.6em">FBHP Over Time</text>
      </g>
    </g>
  </g>
</g>
<defs>
  <clipPath id="img-be007ff1-4">
    <path d="M21.31,10.61 L 147.4 10.61 147.4 82.32 21.31 82.32" />
  </clipPath>
</defs>
</svg>
