<?xml version="1.0" encoding="UTF-8"?>
<svg xmlns="http://www.w3.org/2000/svg"
     xmlns:xlink="http://www.w3.org/1999/xlink"
     xmlns:gadfly="http://www.gadflyjl.org/ns"
     version="1.2"
     width="152.4mm" height="101.6mm" viewBox="0 0 152.4 101.6"
     stroke="none"
     fill="#000000"
     stroke-width="0.3"
     font-size="3.88"
>
<defs>
  <marker id="arrow" markerWidth="15" markerHeight="7" refX="5" refY="3.5" orient="auto" markerUnits="strokeWidth">
    <path d="M0,0 L15,3.5 L0,7 z" stroke="context-stroke" fill="context-stroke"/>
  </marker>
</defs>
<g class="plotroot xscalable yscalable" id="img-04df7ba8-1">
  <g font-size="3.88" font-family="'PT Sans','Helvetica Neue','Helvetica',sans-serif" fill="#564A55" stroke="#000000" stroke-opacity="0.000" id="img-04df7ba8-2">
    <g transform="translate(84.35,89.99)">
      <g class="primitive">
        <text text-anchor="middle" dy="0.6em">Time (days)</text>
      </g>
    </g>
  </g>
  <g class="guide xlabels" font-size="2.82" font-family="'PT Sans Caption','Helvetica Neue','Helvetica',sans-serif" fill="#6C606B" id="img-04df7ba8-3">
    <g transform="translate(23.31,83.32)">
      <g class="primitive">
        <text text-anchor="middle" dy="0.6em">0</text>
      </g>
    </g>
    <g transform="translate(53.83,83.32)">
      <g class="primitive">
        <text text-anchor="middle" dy="0.6em">200</text>
      </g>
    </g>
    <g transform="translate(84.35,83.32)">
      <g class="primitive">
        <text text-anchor="middle" dy="0.6em">400</text>
      </g>
    </g>
    <g transform="translate(114.88,83.32)">
      <g class="primitive">
        <text text-anchor="middle" dy="0.6em">600</text>
      </g>
    </g>
    <g transform="translate(145.4,83.32)">
      <g class="primitive">
        <text text-anchor="middle" dy="0.6em">800</text>
      </g>
    </g>
  </g>
  <g clip-path="url(#img-04df7ba8-4)">
    <g id="img-04df7ba8-5">
      <g pointer-events="visible" fill="#000000" fill-opacity="0.000" stroke="#000000" stroke-opacity="0.000" class="guide background" id="img-04df7ba8-6">
        <g transform="translate(84.35,46.46)" id="img-04df7ba8-7">
          <path d="M-63.05,-35.85 L 63.05 -35.85 63.05 35.85 -63.05 35.85 z" class="primitive"/>
        </g>
      </g>
      <g class="guide ygridlines xfixed" stroke-dasharray="0.5,0.5" stroke-width="0.2" stroke="#D0D0E0" id="img-04df7ba8-8">
        <g transform="translate(84.35,80.32)" id="img-04df7ba8-9">
          <path fill="none" d="M-63.05,0 L 63.05 0" class="primitive"/>
        </g>
        <g transform="translate(84.35,63.39)" id="img-04df7ba8-10">
          <path fill="none" d="M-63.05,0 L 63.05 0" class="primitive"/>
        </g>
        <g transform="translate(84.35,46.46)" id="img-04df7ba8-11">
          <path fill="none" d="M-63.05,0 L 63.05 0" class="primitive"/>
        </g>
        <g transform="translate(84.35,29.54)" id="img-04df7ba8-12">
          <path fill="none" d="M-63.05,0 L 63.05 0" class="primitive"/>
        </g>
        <g transform="translate(84.35,12.61)" id="img-04df7ba8-13">
          <path fill="none" d="M-63.05,0 L 63.05 0" class="primitive"/>
        </g>
      </g>
      <g class="guide xgridlines yfixed" stroke-dasharray="0.5,0.5" stroke-width="0.2" stroke="#D0D0E0" id="img-04df7ba8-14">
        <g transform="translate(23.31,46.46)" id="img-04df7ba8-15">
          <path fill="none" d="M0,-35.85 L 0 35.85" class="primitive"/>
        </g>
        <g transform="translate(53.83,46.46)" id="img-04df7ba8-16">
          <path fill="none" d="M0,-35.85 L 0 35.85" class="primitive"/>
        </g>
        <g transform="translate(84.35,46.46)" id="img-04df7ba8-17">
          <path fill="none" d="M0,-35.85 L 0 35.85" class="primitive"/>
        </g>
        <g transform="translate(114.88,46.46)" id="img-04df7ba8-18">
          <path fill="none" d="M0,-35.85 L 0 35.85" class="primitive"/>
        </g>
        <g transform="translate(145.4,46.46)" id="img-04df7ba8-19">
          <path fill="none" d="M0,-35.85 L 0 35.85" class="primitive"/>
        </g>
      </g>
      <g class="plotpanel" id="img-04df7ba8-20">
        <metadata>
          <boundingbox value="21.30500000000002mm 10.611666666666665mm 126.09499999999998mm 71.70333333333333mm"/>
          <unitbox value="-13.10454973586142 4118.162572005317 826.2090994717229 -4236.325144010634"/>
        </metadata>
        <g stroke-width="0.3" fill="#000000" fill-opacity="0.000" class="geometry" id="img-04df7ba8-21">
          <g class="color_RGB{N0f8}(0.502,0.0,0.502)" stroke-dasharray="none" stroke="#800080" id="img-04df7ba8-22">
            <g transform="translate(79.01,62.87)" id="img-04df7ba8-23">
              <path fill="none" d="M-55.71,-36.98 L -55.55 -36.18 -55.4 -35.45 -55.25 -34.73 -55.1 -33.96 -54.94 -33.23 -54.79 -32.6 -54.64 -31.78 -54.48 -31.03 -54.33 -30.44 -54.18 -29.8 -54.03 -29.17 -53.87 -28.62 -53.72 -27.96 -53.57 -27.37 -53.42 -26.97 -53.26 -26.3 -53.11 -25.79 -52.96 -25.32 -52.81 -24.81 -52.65 -24.47 -52.5 -23.72 -52.35 -23.4 -52.2 -22.96 -52.04 -22.56 -51.89 -22.17 -51.74 -21.77 -51.59 -21.33 -51.43 -20.98 -51.28 -20.62 -51.13 -20.27 -50.97 -19.86 -50.82 -19.56 -50.67 -19.3 -50.52 -18.94 -50.36 -18.59 -50.21 -18.31 -50.06 -17.89 -49.91 -17.57 -49.75 -17.33 -49.6 -17.19 -49.45 -16.72 -49.3 -16.5 -49.14 -16.4 -48.99 -16.08 -48.84 -15.75 -48.69 -15.46 -48.53 -15.24 -48.38 -15.17 -48.23 -14.74 -48.07 -14.69 -47.92 -14.49 -47.77 -14.13 -47.62 -14.1 -47.46 -13.92 -47.31 -13.8 -47.16 -13.5 -47.01 -13.2 -46.85 -13.22 -46.7 -13.06 -46.55 -12.84 -46.4 -12.63 -46.24 -12.46 -46.09 -12.37 -45.94 -12.17 -45.79 -12.18 -45.63 -11.96 -45.48 -11.82 -45.33 -11.63 -45.18 -11.41 -45.02 -11.52 -44.87 -11.36 -44.72 -11.24 -44.56 -11.04 -44.41 -10.98 -44.26 -10.67 -44.11 -10.68 -43.95 -10.51 -43.8 -10.42 -43.65 -10.47 -43.5 -10.04 -43.34 -10.01 -43.19 -9.98 -43.04 -9.64 -42.89 -9.68 -42.73 -9.54 -42.58 -9.45 -42.43 -9.32 -42.28 -9.22 -42.12 -9.1 -41.97 -8.89 -41.82 -9 -41.66 -8.9 -41.51 -8.67 -41.36 -8.44 -41.21 -8.51 -41.05 -8.32 -40.9 -8.26 -40.75 -8.05 -40.6 -8.25 -40.44 -7.98 -40.29 -7.87 -40.14 -7.95 -39.99 -7.74 -39.83 -7.76 -39.68 -7.49 -39.53 -7.54 -39.38 -7.4 -39.22 -7.19 -39.07 -7.32 -38.92 -7.04 -38.77 -6.91 -38.61 -6.95 -38.46 -6.81 -38.31 -6.63 -38.15 -6.52 -38 -6.55 -37.85 -6.42 -37.7 -6.3 -37.54 -6.42 -37.39 -6.16 -37.24 -6.2 -37.09 -6.12 -36.93 -6.09 -36.78 -6.18 -36.63 -6 -36.48 -5.74 -36.32 -5.74 -36.17 -5.54 -36.02 -5.45 -35.87 -5.43 -35.71 -5.55 -35.56 -5.31 -35.41 -5.23 -35.25 -5.41 -35.1 -5.12 -34.95 -5.18 -34.8 -4.85 -34.64 -4.72 -34.49 -4.77 -34.34 -4.72 -34.19 -4.51 -34.03 -4.56 -33.88 -4.34 -33.73 -4.66 -33.58 -4.14 -33.42 -4.45 -33.27 -4.23 -33.12 -4.15 -32.97 -4.07 -32.81 -4.05 -32.66 -3.96 -32.51 -3.94 -32.36 -3.8 -32.2 -3.88 -32.05 -3.73 -31.9 -3.63 -31.74 -3.7 -31.59 -3.29 -31.44 -3.6 -31.29 -3.37 -31.13 -3.26 -30.98 -3.14 -30.83 -3.31 -30.68 -3.05 -30.52 -3.22 -30.37 -3.16 -30.22 -2.92 -30.07 -2.97 -29.91 -2.97 -29.76 -3 -29.61 -2.77 -29.46 -2.82 -29.3 -2.79 -29.15 -2.52 -29 -2.66 -28.84 -2.57 -28.69 -2.82 -28.54 -2.41 -28.39 -2.74 -28.23 -2.41 -28.08 -2.17 -27.93 -2.1 -27.78 -2.24 -27.62 -1.93 -27.47 -2.22 -27.32 -2.3 -27.17 -2.05 -27.01 -2.19 -26.86 -2.13 -26.71 -2 -26.56 -1.75 -26.4 -1.87 -26.25 -1.74 -26.1 -1.72 -25.95 -1.76 -25.79 -1.56 -25.64 -1.54 -25.49 -1.56 -25.33 -1.64 -25.18 -1.3 -25.03 -1.37 -24.88 -1.49 -24.72 -1.38 -24.57 -1.31 -24.42 -1.13 -24.27 -1.35 -24.11 -1.1 -23.96 -1.14 -23.81 -1.49 -23.66 -0.88 -23.5 -0.98 -23.35 -0.86 -23.2 -0.93 -23.05 -0.95 -22.89 -0.6 -22.74 -0.98 -22.59 -1.05 -22.43 -1.11 -22.28 -0.72 -22.13 -0.46 -21.98 -0.78 -21.82 -0.51 -21.67 -0.46 -21.52 -0.73 -21.37 -0.61 -21.21 -0.52 -21.06 -0.53 -20.91 -0.41 -20.76 -0.47 -20.6 -0.36 -20.45 -0.38 -20.3 -0.22 -20.15 -0.17 -19.99 0.03 -19.84 0.02 -19.69 0.03 -19.54 0.06 -19.38 -0 -19.23 -0.03 -19.08 0.25 -18.92 0.23 -18.77 0.44 -18.62 0.25 -18.47 0.26 -18.31 0.32 -18.16 0.38 -18.01 0.23 -17.86 0.06 -17.7 0.54 -17.55 0.59 -17.4 0.7 -17.25 0.5 -17.09 0.38 -16.94 0.62 -16.79 0.67 -16.64 0.74 -16.48 0.72 -16.33 0.78 -16.18 0.65 -16.02 0.65 -15.87 0.66 -15.72 0.86 -15.57 0.66 -15.41 0.92 -15.26 0.57 -15.11 0.83 -14.96 0.63 -14.8 0.85 -14.65 0.89 -14.5 1.12 -14.35 0.85 -14.19 0.82 -14.04 0.8 -13.89 1.54 -13.74 1.08 -13.58 1.29 -13.43 0.98 -13.28 1.27 -13.13 0.9 -12.97 1.37 -12.82 1.11 -12.67 1.16 -12.51 1.12 -12.36 1.11 -12.21 1.31 -12.06 1.59 -11.9 1.31 -11.75 1.67 -11.6 1.63 -11.45 1.72 -11.29 1.34 -11.14 1.8 -10.99 1.69 -10.84 1.82 -10.68 1.62 -10.53 1.54 -10.38 1.87 -10.23 1.72 -10.07 1.83 -9.92 1.68 -9.77 1.58 -9.61 1.86 -9.46 2.25 -9.31 1.94 -9.16 2.24 -9 1.73 -8.85 1.71 -8.7 2.33 -8.55 1.92 -8.39 1.81 -8.24 1.94 -8.09 2.29 -7.94 2.39 -7.78 2.28 -7.63 2.22 -7.48 2.16 -7.33 2.14 -7.17 2.37 -7.02 2.12 -6.87 2.23 -6.72 2.39 -6.56 2.48 -6.41 2.14 -6.26 2.24 -6.1 2.08 -5.95 2.61 -5.8 2.4 -5.65 2.64 -5.49 2.49 -5.34 2.63 -5.19 2.29 -5.04 2.38 -4.88 2.58 -4.73 2.6 -4.58 2.69 -4.43 2.44 -4.27 2.62 -4.12 2.63 -3.97 3.09 -3.82 2.71 -3.66 2.78 -3.51 2.68 -3.36 2.62 -3.2 2.71 -3.05 2.93 -2.9 2.24 -2.75 2.45 -2.59 2.74 -2.44 2.9 -2.29 3.35 -2.14 2.91 -1.98 2.58 -1.83 3.13 -1.68 2.88 -1.53 3.25 -1.37 3.01 -1.22 2.74 -1.07 3.31 -0.92 3 -0.76 3.52 -0.61 3.3 -0.46 3.35 -0.31 3.3 -0.15 3.34 0 3.22 0.15 3.15 0.31 3.37 0.46 3.29 0.61 3.18 0.76 3.08 0.92 3.38 1.07 3.04 1.22 3.09 1.37 3.53 1.53 3.36 1.68 3.52 1.83 3.42 1.98 3.45 2.14 3.65 2.29 3.06 2.44 3.95 2.59 3.47 2.75 3.2 2.9 3.54 3.05 3.74 3.2 3.73 3.36 3.95 3.51 3.76 3.66 3.44 3.82 3.06 3.97 3.56 4.12 3.54 4.27 3.86 4.43 3.57 4.58 4.15 4.73 4.06 4.88 4.02 5.04 3.55 5.19 3.85 5.34 3.71 5.49 3.68 5.65 3.78 5.8 3.74 5.95 3.97 6.1 3.65 6.26 3.84 6.41 3.88 6.56 3.52 6.72 4.15 6.87 3.56 7.02 4.03 7.17 3.73 7.33 4.37 7.48 3.61 7.63 4.09 7.78 3.87 7.94 3.45 8.09 3.85 8.24 4.12 8.39 4.1 8.55 3.88 8.7 4.04 8.85 4.08 9 4.21 9.16 4.52 9.31 4.11 9.46 4.11 9.61 4.35 9.77 4.18 9.92 3.8 10.07 4.16 10.23 4.17 10.38 3.89 10.53 4.02 10.68 4.25 10.84 4.4 10.99 4.23 11.14 4.41 11.29 4.43 11.45 3.93 11.6 4.58 11.75 4.12 11.9 4.06 12.06 4.38 12.21 4.39 12.36 4.64 12.51 4.14 12.67 4.58 12.82 4.48 12.97 4.77 13.13 4.19 13.28 4.6 13.43 4.51 13.58 4.55 13.74 4.65 13.89 4.03 14.04 3.99 14.19 4.63 14.35 4.63 14.5 4.34 14.65 5.23 14.8 4.44 14.96 4.91 15.11 4.58 15.26 4.56 15.41 5.17 15.57 4.59 15.72 4.46 15.87 5 16.02 4.64 16.18 4.58 16.33 4.28 16.48 5.34 16.64 4.75 16.79 4.83 16.94 5.03 17.09 4.78 17.25 4.7 17.4 4.83 17.55 4.83 17.7 4.49 17.86 5.02 18.01 4.95 18.16 4.64 18.31 4.66 18.47 4.57 18.62 5.02 18.77 5.13 18.92 4.51 19.08 4.66 19.23 4.66 19.38 5.14 19.54 4.86 19.69 5.04 19.84 4.97 19.99 5.13 20.15 5.11 20.3 5.14 20.45 4.84 20.6 4.85 20.76 5.01 20.91 5.11 21.06 5.25 21.21 4.93 21.37 5.49 21.52 5.36 21.67 5.65 21.82 4.81 21.98 5.14 22.13 4.63 22.28 4.83 22.43 5.19 22.59 5.3 22.74 5.22 22.89 5.01 23.05 5.28 23.2 5.14 23.35 5.49 23.5 5.3 23.66 4.89 23.81 5.56 23.96 5.33 24.11 5.15 24.27 5.24 24.42 5.32 24.57 5.35 24.72 5.6 24.88 5.41 25.03 5.61 25.18 5.25 25.33 5.31 25.49 5.27 25.64 5.45 25.79 5.36 25.95 5.26 26.1 5.37 26.25 5.66 26.4 6.03 26.56 5.39 26.71 5.44 26.86 5.65 27.01 5.97 27.17 5.93 27.32 5.25 27.47 5.59 27.62 5.66 27.78 5.49 27.93 5.04 28.08 5.57 28.23 5.49 28.39 5.72 28.54 6 28.69 5.66 28.84 5.92 29 5.7 29.15 5.47 29.3 5.73 29.46 5.29 29.61 5.34 29.76 5.05 29.91 4.98 30.07 5.49 30.22 5.82 30.37 5.95 30.52 6.07 30.68 5.78 30.83 5.74 30.98 5.56 31.13 6.24 31.29 5.96 31.44 6.19 31.59 5.65 31.74 5.99 31.9 5.15 32.05 5.89 32.2 5.98 32.36 5.67 32.51 5.55 32.66 5.81 32.81 5.91 32.97 5.57 33.12 6.09 33.27 6.08 33.42 5.86 33.58 5.63 33.73 6.05 33.88 5.98 34.03 5.31 34.19 5.46 34.34 5.73 34.49 5.83 34.64 5.78 34.8 6.24 34.95 5.69 35.1 5.75 35.25 6.27 35.41 6.11 35.56 6.15 35.71 6.14 35.87 5.86 36.02 6.44 36.17 6.06 36.32 5.87 36.48 6.51 36.63 6.57 36.78 5.65 36.93 6.13 37.09 6.06 37.24 5.9 37.39 6.12 37.54 5.52 37.7 6.06 37.85 6 38 5.49 38.15 5.79 38.31 6.09 38.46 5.62 38.61 6.35 38.77 5.87 38.92 6.71 39.07 6.28 39.22 6.52 39.38 6.37 39.53 6.12 39.68 6.5 39.83 6.49 39.99 6.01 40.14 6.41 40.29 6.17 40.44 6.55 40.6 6.4 40.75 6.06 40.9 6.71 41.05 6.37 41.21 6.58 41.36 5.86 41.51 5.89 41.66 6.29 41.82 6.26 41.97 6.58 42.12 6.72 42.28 6.09 42.43 6.43 42.58 5.95 42.73 6.34 42.89 6.61 43.04 6.09 43.19 6.46 43.34 6.55 43.5 5.96 43.65 6.24 43.8 6.01 43.95 5.96 44.11 6.81 44.26 6.76 44.41 6.51 44.56 6.38 44.72 6.44 44.87 6.77 45.02 6.51 45.18 6.84 45.33 6.65 45.48 6.9 45.63 6.03 45.79 6.26 45.94 6.26 46.09 6.68 46.24 6.19 46.4 6.83 46.55 6.26 46.7 6.38 46.85 6.91 47.01 6.52 47.16 6.83 47.31 6.29 47.46 5.92 47.62 6.42 47.77 6.23 47.92 7.09 48.07 6.71 48.23 6.78 48.38 6.58 48.53 6.36 48.69 6.93 48.84 7.03 48.99 6.73 49.14 7.07 49.3 6.18 49.45 6.59 49.6 6.65 49.75 7.17 49.91 6.85 50.06 6.66 50.21 6.56 50.36 7.13 50.52 7.37 50.67 6.25 50.82 6.08 50.97 6.93 51.13 6.28 51.28 6.76 51.43 6.75 51.59 6.95 51.74 6.85 51.89 6.64 52.04 6.75 52.2 6.9 52.35 6.32 52.5 7.13 52.65 6.92 52.81 7.24 52.96 6.98 53.11 6.94 53.26 6.67 53.42 7.23 53.57 7.36 53.72 5.84 53.87 7.26 54.03 6.57 54.18 6.95 54.33 7.36 54.48 6.68 54.64 7.1 54.79 6.75 54.94 6.86 55.1 6.7 55.25 6.17 55.4 6.98 55.55 6.32 55.71 6.88" class="primitive"/>
            </g>
          </g>
        </g>
      </g>
    </g>
  </g>
  <g class="guide ylabels" font-size="2.82" font-family="'PT Sans Caption','Helvetica Neue','Helvetica',sans-serif" fill="#6C606B" id="img-04df7ba8-24">
    <g transform="translate(20.3,80.32)" id="img-04df7ba8-25">
      <g class="primitive">
        <text text-anchor="end" dy="0.35em">0</text>
      </g>
    </g>
    <g transform="translate(20.3,63.39)" id="img-04df7ba8-26">
      <g class="primitive">
        <text text-anchor="end" dy="0.35em">1000</text>
      </g>
    </g>
    <g transform="translate(20.3,46.46)" id="img-04df7ba8-27">
      <g class="primitive">
        <text text-anchor="end" dy="0.35em">2000</text>
      </g>
    </g>
    <g transform="translate(20.3,29.54)" id="img-04df7ba8-28">
      <g class="primitive">
        <text text-anchor="end" dy="0.35em">3000</text>
      </g>
    </g>
    <g transform="translate(20.3,12.61)" id="img-04df7ba8-29">
      <g class="primitive">
        <text text-anchor="end" dy="0.35em">4000</text>
      </g>
    </g>
  </g>
  <g font-size="3.88" font-family="'PT Sans','Helvetica Neue','Helvetica',sans-serif" fill="#564A55" stroke="#000000" stroke-opacity="0.000" id="img-04df7ba8-30">
    <g transform="translate(8.81,44.46)" id="img-04df7ba8-31">
      <g class="primitive">
        <text text-anchor="middle" dy="0.35em" transform="rotate(-90,0, 2)">Flowing Pressure (psig)</text>
      </g>
    </g>
  </g>
  <g font-size="3.88" font-family="'PT Sans','Helvetica Neue','Helvetica',sans-serif" fill="#564A55" stroke="#000000" stroke-opacity="0.000" id="img-04df7ba8-32">
    <g transform="translate(84.35,5)" id="img-04df7ba8-33">
      <g class="primitive">
        <text text-anchor="middle" dy="0.6em">FBHP Over Time</text>
      </g>
    </g>
  </g>
</g>
<defs>
  <clipPath id="img-04df7ba8-4">
    <path d="M21.31,10.61 L 147.4 10.61 147.4 82.32 21.31 82.32" />
  </clipPath>
</defs>
</svg>
