<?xml version="1.0" encoding="UTF-8"?>
<svg xmlns="http://www.w3.org/2000/svg"
     xmlns:xlink="http://www.w3.org/1999/xlink"
     xmlns:gadfly="http://www.gadflyjl.org/ns"
     version="1.2"
     width="152.4mm" height="101.6mm" viewBox="0 0 152.4 101.6"
     stroke="none"
     fill="#000000"
     stroke-width="0.3"
     font-size="3.88"
>
<defs>
  <marker id="arrow" markerWidth="15" markerHeight="7" refX="5" refY="3.5" orient="auto" markerUnits="strokeWidth">
    <path d="M0,0 L15,3.5 L0,7 z" stroke="context-stroke" fill="context-stroke"/>
  </marker>
</defs>
<g class="plotroot xscalable yscalable" id="img-f02263d1-1">
  <g font-size="3.88" font-family="'PT Sans','Helvetica Neue','Helvetica',sans-serif" fill="#564A55" stroke="#000000" stroke-opacity="0.000" id="img-f02263d1-2">
    <g transform="translate(84.35,89.99)">
      <g class="primitive">
        <text text-anchor="middle" dy="0.6em">Time (days)</text>
      </g>
    </g>
  </g>
  <g class="guide xlabels" font-size="2.82" font-family="'PT Sans Caption','Helvetica Neue','Helvetica',sans-serif" fill="#6C606B" id="img-f02263d1-3">
    <g transform="translate(23.31,83.32)">
      <g class="primitive">
        <text text-anchor="middle" dy="0.6em">0</text>
      </g>
    </g>
    <g transform="translate(53.83,83.32)">
      <g class="primitive">
        <text text-anchor="middle" dy="0.6em">200</text>
      </g>
    </g>
    <g transform="translate(84.35,83.32)">
      <g class="primitive">
        <text text-anchor="middle" dy="0.6em">400</text>
      </g>
    </g>
    <g transform="translate(114.88,83.32)">
      <g class="primitive">
        <text text-anchor="middle" dy="0.6em">600</text>
      </g>
    </g>
    <g transform="translate(145.4,83.32)">
      <g class="primitive">
        <text text-anchor="middle" dy="0.6em">800</text>
      </g>
    </g>
  </g>
  <g clip-path="url(#img-f02263d1-4)">
    <g id="img-f02263d1-5">
      <g pointer-events="visible" fill="#000000" fill-opacity="0.000" stroke="#000000" stroke-opacity="0.000" class="guide background" id="img-f02263d1-6">
        <g transform="translate(84.35,46.46)" id="img-f02263d1-7">
          <path d="M-63.05,-35.85 L 63.05 -35.85 63.05 35.85 -63.05 35.85 z" class="primitive"/>
        </g>
      </g>
      <g class="guide ygridlines xfixed" stroke-dasharray="0.5,0.5" stroke-width="0.2" stroke="#D0D0E0" id="img-f02263d1-8">
        <g transform="translate(84.35,80.32)" id="img-f02263d1-9">
          <path fill="none" d="M-63.05,0 L 63.05 0" class="primitive"/>
        </g>
        <g transform="translate(84.35,63.39)" id="img-f02263d1-10">
          <path fill="none" d="M-63.05,0 L 63.05 0" class="primitive"/>
        </g>
        <g transform="translate(84.35,46.46)" id="img-f02263d1-11">
          <path fill="none" d="M-63.05,0 L 63.05 0" class="primitive"/>
        </g>
        <g transform="translate(84.35,29.54)" id="img-f02263d1-12">
          <path fill="none" d="M-63.05,0 L 63.05 0" class="primitive"/>
        </g>
        <g transform="translate(84.35,12.61)" id="img-f02263d1-13">
          <path fill="none" d="M-63.05,0 L 63.05 0" class="primitive"/>
        </g>
      </g>
      <g class="guide xgridlines yfixed" stroke-dasharray="0.5,0.5" stroke-width="0.2" stroke="#D0D0E0" id="img-f02263d1-14">
        <g transform="translate(23.31,46.46)" id="img-f02263d1-15">
          <path fill="none" d="M0,-35.85 L 0 35.85" class="primitive"/>
        </g>
        <g transform="translate(53.83,46.46)" id="img-f02263d1-16">
          <path fill="none" d="M0,-35.85 L 0 35.85" class="primitive"/>
        </g>
        <g transform="translate(84.35,46.46)" id="img-f02263d1-17">
          <path fill="none" d="M0,-35.85 L 0 35.85" class="primitive"/>
        </g>
        <g transform="translate(114.88,46.46)" id="img-f02263d1-18">
          <path fill="none" d="M0,-35.85 L 0 35.85" class="primitive"/>
        </g>
        <g transform="translate(145.4,46.46)" id="img-f02263d1-19">
          <path fill="none" d="M0,-35.85 L 0 35.85" class="primitive"/>
        </g>
      </g>
      <g class="plotpanel" id="img-f02263d1-20">
        <metadata>
          <boundingbox value="21.30500000000002mm 10.611666666666665mm 126.09499999999998mm 71.70333333333333mm"/>
          <unitbox value="-13.10454973586142 4118.162572005317 826.2090994717229 -4236.325144010634"/>
        </metadata>
        <g stroke-width="0.3" fill="#000000" fill-opacity="0.000" class="geometry" id="img-f02263d1-21">
          <g class="color_RGB{N0f8}(0.502,0.0,0.502)" stroke-dasharray="none" stroke="#800080" id="img-f02263d1-22">
            <g transform="translate(79.01,62.85)" id="img-f02263d1-23">
              <path fill="none" d="M-55.71,-36.97 L -55.55 -36.22 -55.4 -35.49 -55.25 -34.65 -55.1 -33.93 -54.94 -33.19 -54.79 -32.57 -54.64 -31.79 -54.48 -31.14 -54.33 -30.45 -54.18 -29.75 -54.03 -29.14 -53.87 -28.6 -53.72 -27.99 -53.57 -27.42 -53.42 -26.92 -53.26 -26.28 -53.11 -25.68 -52.96 -25.18 -52.81 -24.81 -52.65 -24.3 -52.5 -23.73 -52.35 -23.53 -52.2 -23.01 -52.04 -22.63 -51.89 -22.18 -51.74 -21.63 -51.59 -21.41 -51.43 -20.96 -51.28 -20.61 -51.13 -20.23 -50.97 -19.83 -50.82 -19.56 -50.67 -19.28 -50.52 -18.73 -50.36 -18.52 -50.21 -18.24 -50.06 -17.73 -49.91 -17.66 -49.75 -17.25 -49.6 -17.08 -49.45 -16.8 -49.3 -16.55 -49.14 -16.3 -48.99 -16 -48.84 -15.75 -48.69 -15.59 -48.53 -15.4 -48.38 -15.13 -48.23 -14.79 -48.07 -14.54 -47.92 -14.31 -47.77 -14.18 -47.62 -13.96 -47.46 -13.75 -47.31 -13.78 -47.16 -13.5 -47.01 -13.23 -46.85 -13.07 -46.7 -12.84 -46.55 -12.78 -46.4 -12.58 -46.24 -12.54 -46.09 -12.22 -45.94 -12.19 -45.79 -12.01 -45.63 -11.83 -45.48 -11.77 -45.33 -11.68 -45.18 -11.41 -45.02 -11.33 -44.87 -11.15 -44.72 -11.08 -44.56 -11.01 -44.41 -11.03 -44.26 -10.85 -44.11 -10.46 -43.95 -10.5 -43.8 -10.49 -43.65 -10.11 -43.5 -10.1 -43.34 -10.03 -43.19 -10.06 -43.04 -9.63 -42.89 -9.64 -42.73 -9.58 -42.58 -9.25 -42.43 -9.19 -42.28 -9.24 -42.12 -9.03 -41.97 -9.02 -41.82 -8.85 -41.66 -8.69 -41.51 -8.58 -41.36 -8.35 -41.21 -8.25 -41.05 -8.28 -40.9 -8.31 -40.75 -8.38 -40.6 -8.06 -40.44 -7.95 -40.29 -7.74 -40.14 -7.75 -39.99 -7.68 -39.83 -7.66 -39.68 -7.76 -39.53 -7.42 -39.38 -7.25 -39.22 -7.37 -39.07 -7.13 -38.92 -7.05 -38.77 -6.85 -38.61 -7.01 -38.46 -6.79 -38.31 -6.76 -38.15 -6.51 -38 -6.7 -37.85 -6.61 -37.7 -6.39 -37.54 -6.2 -37.39 -6.2 -37.24 -6.18 -37.09 -5.96 -36.93 -5.87 -36.78 -5.91 -36.63 -5.93 -36.48 -5.77 -36.32 -5.69 -36.17 -5.64 -36.02 -5.59 -35.87 -5.75 -35.71 -5.21 -35.56 -5.31 -35.41 -5.15 -35.25 -5.16 -35.1 -5.06 -34.95 -4.93 -34.8 -4.85 -34.64 -4.8 -34.49 -4.64 -34.34 -4.78 -34.19 -4.73 -34.03 -4.35 -33.88 -4.35 -33.73 -4.51 -33.58 -4.14 -33.42 -4.27 -33.27 -4.36 -33.12 -4.18 -32.97 -4.06 -32.81 -4.2 -32.66 -4.11 -32.51 -3.83 -32.36 -4.13 -32.2 -3.9 -32.05 -3.79 -31.9 -3.57 -31.74 -3.57 -31.59 -3.61 -31.44 -3.53 -31.29 -3.41 -31.13 -3.63 -30.98 -3.14 -30.83 -3.26 -30.68 -3.31 -30.52 -3.07 -30.37 -2.99 -30.22 -2.98 -30.07 -3.1 -29.91 -2.86 -29.76 -2.92 -29.61 -2.74 -29.46 -2.82 -29.3 -2.57 -29.15 -2.63 -29 -2.55 -28.84 -2.61 -28.69 -2.54 -28.54 -2.34 -28.39 -2.53 -28.23 -2.45 -28.08 -2.55 -27.93 -2.05 -27.78 -1.95 -27.62 -2.13 -27.47 -2.18 -27.32 -2 -27.17 -2.32 -27.01 -1.99 -26.86 -1.93 -26.71 -1.89 -26.56 -1.96 -26.4 -1.7 -26.25 -1.76 -26.1 -1.92 -25.95 -1.54 -25.79 -1.55 -25.64 -1.74 -25.49 -1.61 -25.33 -1.52 -25.18 -1.52 -25.03 -1.46 -24.88 -1.49 -24.72 -1.09 -24.57 -0.77 -24.42 -1.39 -24.27 -1.4 -24.11 -1.21 -23.96 -1.32 -23.81 -1.11 -23.66 -1.38 -23.5 -1.03 -23.35 -0.97 -23.2 -0.85 -23.05 -0.84 -22.89 -0.48 -22.74 -0.94 -22.59 -0.82 -22.43 -0.53 -22.28 -0.54 -22.13 -0.91 -21.98 -0.55 -21.82 -0.81 -21.67 -0.33 -21.52 -0.47 -21.37 -0.44 -21.21 -0.39 -21.06 -0.55 -20.91 0.01 -20.76 -0.42 -20.6 -0.2 -20.45 -0.28 -20.3 -0.35 -20.15 -0.08 -19.99 -0.23 -19.84 -0.21 -19.69 0.31 -19.54 0.09 -19.38 -0.24 -19.23 0.31 -19.08 0.03 -18.92 -0.05 -18.77 0.25 -18.62 0.31 -18.47 0.15 -18.31 0.33 -18.16 0.42 -18.01 0.66 -17.86 0.46 -17.7 0.66 -17.55 0.24 -17.4 0.3 -17.25 0.78 -17.09 0.37 -16.94 0.44 -16.79 0.8 -16.64 0.29 -16.48 0.85 -16.33 0.75 -16.18 0.67 -16.02 0.55 -15.87 0.82 -15.72 0.28 -15.57 0.72 -15.41 0.67 -15.26 0.67 -15.11 0.67 -14.96 0.84 -14.8 0.88 -14.65 0.86 -14.5 1.3 -14.35 1.15 -14.19 0.8 -14.04 1.28 -13.89 0.91 -13.74 1.06 -13.58 1.26 -13.43 1.43 -13.28 1.38 -13.13 1.57 -12.97 1.15 -12.82 1.02 -12.67 1.37 -12.51 1.53 -12.36 1.44 -12.21 1.49 -12.06 1.35 -11.9 1.45 -11.75 1.44 -11.6 1.5 -11.45 1.48 -11.29 1.51 -11.14 1.37 -10.99 1.58 -10.84 1.39 -10.68 1.32 -10.53 1.71 -10.38 1.61 -10.23 1.58 -10.07 1.83 -9.92 1.9 -9.77 1.87 -9.61 1.92 -9.46 2.12 -9.31 1.73 -9.16 2.33 -9 1.56 -8.85 1.84 -8.7 2.09 -8.55 1.96 -8.39 2.06 -8.24 1.98 -8.09 2.43 -7.94 1.91 -7.78 2.02 -7.63 2.26 -7.48 2.42 -7.33 2.31 -7.17 2.32 -7.02 2.16 -6.87 2.2 -6.72 2.42 -6.56 2.14 -6.41 2 -6.26 2.63 -6.1 2.52 -5.95 2.34 -5.8 2.32 -5.65 2.45 -5.49 2.25 -5.34 2.38 -5.19 2.58 -5.04 2.72 -4.88 2.22 -4.73 2.63 -4.58 2.51 -4.43 2.84 -4.27 2.49 -4.12 2.78 -3.97 3.07 -3.82 2.47 -3.66 3.04 -3.51 2.63 -3.36 2.52 -3.2 3.03 -3.05 2.47 -2.9 2.61 -2.75 2.8 -2.59 2.91 -2.44 3.02 -2.29 3.09 -2.14 3.17 -1.98 2.87 -1.83 3.41 -1.68 3.15 -1.53 2.86 -1.37 3.21 -1.22 3.25 -1.07 2.94 -0.92 2.98 -0.76 2.99 -0.61 3.06 -0.46 3 -0.31 3.22 -0.15 3.01 0 3.18 0.15 3.28 0.31 3.38 0.46 3.3 0.61 3.33 0.76 3.13 0.92 3.07 1.07 3.37 1.22 3.2 1.37 3.27 1.53 3.6 1.68 3.36 1.83 3.5 1.98 3.5 2.14 3.53 2.29 3.22 2.44 3.24 2.59 3.6 2.75 3.23 2.9 3.37 3.05 3.35 3.2 3.13 3.36 3.42 3.51 3.51 3.66 3.88 3.82 3.71 3.97 3.58 4.12 3.27 4.27 4.08 4.43 3.52 4.58 3.51 4.73 4.04 4.88 3.36 5.04 3.68 5.19 3.85 5.34 3.62 5.49 3.58 5.65 3.54 5.8 3.87 5.95 4.04 6.1 3.52 6.26 3.9 6.41 4 6.56 3.57 6.72 4.21 6.87 4.34 7.02 4.15 7.17 3.97 7.33 4.1 7.48 4.18 7.63 4.02 7.78 3.93 7.94 3.9 8.09 3.74 8.24 4 8.39 3.95 8.55 4.05 8.7 3.93 8.85 4.11 9 4.62 9.16 4.45 9.31 4.06 9.46 4.48 9.61 4.01 9.77 3.91 9.92 3.97 10.07 4.36 10.23 4.45 10.38 4.13 10.53 4.29 10.68 4.42 10.84 4.39 10.99 4.85 11.14 4.07 11.29 4.41 11.45 4.33 11.6 4.36 11.75 4.43 11.9 4.04 12.06 4.58 12.21 4.33 12.36 4.68 12.51 4.44 12.67 4.07 12.82 4.31 12.97 4.61 13.13 4.65 13.28 4.02 13.43 4.29 13.58 4.25 13.74 4.59 13.89 4.5 14.04 4.63 14.19 5.22 14.35 4.09 14.5 4.23 14.65 4.35 14.8 4.28 14.96 4.99 15.11 4.38 15.26 4.44 15.41 4.76 15.57 4.51 15.72 4.41 15.87 4.98 16.02 4.6 16.18 4.43 16.33 4.8 16.48 4.85 16.64 4.61 16.79 4.3 16.94 5.14 17.09 4.79 17.25 4.96 17.4 4.77 17.55 4.91 17.7 5.09 17.86 4.75 18.01 5.06 18.16 5.34 18.31 4.72 18.47 5.12 18.62 4.9 18.77 4.35 18.92 5 19.08 5.07 19.23 4.56 19.38 5.03 19.54 4.76 19.69 5.36 19.84 4.87 19.99 5 20.15 4.87 20.3 4.93 20.45 4.74 20.6 4.61 20.76 4.89 20.91 4.77 21.06 4.92 21.21 5.12 21.37 5.23 21.52 5.13 21.67 4.81 21.82 5.21 21.98 4.99 22.13 5.3 22.28 4.97 22.43 5.19 22.59 5.35 22.74 5.29 22.89 4.75 23.05 4.74 23.2 5.32 23.35 5.02 23.5 5.17 23.66 5.02 23.81 5.72 23.96 5.5 24.11 5.48 24.27 5.1 24.42 5.47 24.57 5.31 24.72 4.79 24.88 5.5 25.03 5.62 25.18 5.22 25.33 5.44 25.49 4.97 25.64 5.28 25.79 5.02 25.95 5.21 26.1 5.29 26.25 5.37 26.4 5.17 26.56 5.56 26.71 5.87 26.86 5.47 27.01 5.76 27.17 5.76 27.32 5.71 27.47 5.31 27.62 4.92 27.78 5.62 27.93 5.71 28.08 5.58 28.23 5.11 28.39 5.45 28.54 5.93 28.69 5.39 28.84 5.71 29 5.65 29.15 5.36 29.3 5.84 29.46 4.86 29.61 5.79 29.76 5.6 29.91 5.72 30.07 6.1 30.22 5.56 30.37 5.54 30.52 6.1 30.68 6.01 30.83 5.49 30.98 5.24 31.13 6.07 31.29 5.7 31.44 6.13 31.59 6.11 31.74 6 31.9 5.19 32.05 5.99 32.2 5.55 32.36 6.32 32.51 5.36 32.66 5.5 32.81 5.44 32.97 5.95 33.12 5.62 33.27 5.63 33.42 5.18 33.58 5.68 33.73 5.75 33.88 5.61 34.03 6.04 34.19 5.8 34.34 5.82 34.49 5.97 34.64 6.33 34.8 5.85 34.95 5.7 35.1 6.22 35.25 6.27 35.41 6.18 35.56 5.98 35.71 5.6 35.87 6.51 36.02 5.66 36.17 5.49 36.32 5.7 36.48 5.9 36.63 5.92 36.78 5.59 36.93 5.56 37.09 6.1 37.24 6.06 37.39 6.07 37.54 5.7 37.7 5.84 37.85 6.15 38 6.34 38.15 5.8 38.31 6.28 38.46 5.81 38.61 6.02 38.77 6.22 38.92 5.77 39.07 6.59 39.22 6.11 39.38 5.88 39.53 5.8 39.68 6.33 39.83 6.39 39.99 6.4 40.14 6.45 40.29 6.22 40.44 6.74 40.6 6.64 40.75 6.35 40.9 6.15 41.05 5.95 41.21 5.94 41.36 6.03 41.51 6.69 41.66 5.86 41.82 6.66 41.97 6.25 42.12 6.11 42.28 6.58 42.43 6.22 42.58 6.62 42.73 6.54 42.89 6.89 43.04 6.58 43.19 6.41 43.34 7.13 43.5 6.59 43.65 6.84 43.8 6.59 43.95 6.16 44.11 5.68 44.26 5.95 44.41 7.08 44.56 6.16 44.72 5.97 44.87 7.05 45.02 6.53 45.18 6.81 45.33 6.59 45.48 6.39 45.63 6.56 45.79 6.34 45.94 6.34 46.09 6.91 46.24 6.88 46.4 6.34 46.55 6.37 46.7 6.5 46.85 7.17 47.01 6.83 47.16 7.1 47.31 6.31 47.46 6.8 47.62 7.07 47.77 6.38 47.92 6.11 48.07 6.28 48.23 6.9 48.38 6.01 48.53 6.89 48.69 6.46 48.84 6.72 48.99 6.52 49.14 6.57 49.3 6.78 49.45 6.58 49.6 6.71 49.75 6.33 49.91 6.57 50.06 6.33 50.21 6.42 50.36 6.66 50.52 6.6 50.67 6.17 50.82 6.63 50.97 6.67 51.13 6.44 51.28 6.66 51.43 6.83 51.59 6.99 51.74 7.02 51.89 6.67 52.04 6.23 52.2 6.56 52.35 7.44 52.5 6.74 52.65 6.76 52.81 6.67 52.96 6.67 53.11 7.11 53.26 6.45 53.42 6.92 53.57 6.96 53.72 6.99 53.87 7.52 54.03 7.41 54.18 6.24 54.33 6.87 54.48 7.11 54.64 7.79 54.79 6.68 54.94 6.45 55.1 7.26 55.25 7.07 55.4 6.61 55.55 6.66 55.71 7.16" class="primitive"/>
            </g>
          </g>
        </g>
      </g>
    </g>
  </g>
  <g class="guide ylabels" font-size="2.82" font-family="'PT Sans Caption','Helvetica Neue','Helvetica',sans-serif" fill="#6C606B" id="img-f02263d1-24">
    <g transform="translate(20.3,80.32)" id="img-f02263d1-25">
      <g class="primitive">
        <text text-anchor="end" dy="0.35em">0</text>
      </g>
    </g>
    <g transform="translate(20.3,63.39)" id="img-f02263d1-26">
      <g class="primitive">
        <text text-anchor="end" dy="0.35em">1000</text>
      </g>
    </g>
    <g transform="translate(20.3,46.46)" id="img-f02263d1-27">
      <g class="primitive">
        <text text-anchor="end" dy="0.35em">2000</text>
      </g>
    </g>
    <g transform="translate(20.3,29.54)" id="img-f02263d1-28">
      <g class="primitive">
        <text text-anchor="end" dy="0.35em">3000</text>
      </g>
    </g>
    <g transform="translate(20.3,12.61)" id="img-f02263d1-29">
      <g class="primitive">
        <text text-anchor="end" dy="0.35em">4000</text>
      </g>
    </g>
  </g>
  <g font-size="3.88" font-family="'PT Sans','Helvetica Neue','Helvetica',sans-serif" fill="#564A55" stroke="#000000" stroke-opacity="0.000" id="img-f02263d1-30">
    <g transform="translate(8.81,44.46)" id="img-f02263d1-31">
      <g class="primitive">
        <text text-anchor="middle" dy="0.35em" transform="rotate(-90,0, 2)">Flowing Pressure (psig)</text>
      </g>
    </g>
  </g>
  <g font-size="3.88" font-family="'PT Sans','Helvetica Neue','Helvetica',sans-serif" fill="#564A55" stroke="#000000" stroke-opacity="0.000" id="img-f02263d1-32">
    <g transform="translate(84.35,5)" id="img-f02263d1-33">
      <g class="primitive">
        <text text-anchor="middle" dy="0.6em">FBHP Over Time</text>
      </g>
    </g>
  </g>
</g>
<defs>
  <clipPath id="img-f02263d1-4">
    <path d="M21.31,10.61 L 147.4 10.61 147.4 82.32 21.31 82.32" />
  </clipPath>
</defs>
</svg>
