<?xml version="1.0" encoding="UTF-8"?>
<svg xmlns="http://www.w3.org/2000/svg"
     xmlns:xlink="http://www.w3.org/1999/xlink"
     xmlns:gadfly="http://www.gadflyjl.org/ns"
     version="1.2"
     width="152.4mm" height="101.6mm" viewBox="0 0 152.4 101.6"
     stroke="none"
     fill="#000000"
     stroke-width="0.3"
     font-size="3.88"
>
<defs>
  <marker id="arrow" markerWidth="15" markerHeight="7" refX="5" refY="3.5" orient="auto" markerUnits="strokeWidth">
    <path d="M0,0 L15,3.5 L0,7 z" stroke="context-stroke" fill="context-stroke"/>
  </marker>
</defs>
<g class="plotroot xscalable yscalable" id="img-fc5859a1-1">
  <g font-size="3.88" font-family="'PT Sans','Helvetica Neue','Helvetica',sans-serif" fill="#564A55" stroke="#000000" stroke-opacity="0.000" id="img-fc5859a1-2">
    <g transform="translate(84.35,89.99)">
      <g class="primitive">
        <text text-anchor="middle" dy="0.6em">Time (days)</text>
      </g>
    </g>
  </g>
  <g class="guide xlabels" font-size="2.82" font-family="'PT Sans Caption','Helvetica Neue','Helvetica',sans-serif" fill="#6C606B" id="img-fc5859a1-3">
    <g transform="translate(23.31,83.32)">
      <g class="primitive">
        <text text-anchor="middle" dy="0.6em">0</text>
      </g>
    </g>
    <g transform="translate(53.83,83.32)">
      <g class="primitive">
        <text text-anchor="middle" dy="0.6em">200</text>
      </g>
    </g>
    <g transform="translate(84.35,83.32)">
      <g class="primitive">
        <text text-anchor="middle" dy="0.6em">400</text>
      </g>
    </g>
    <g transform="translate(114.88,83.32)">
      <g class="primitive">
        <text text-anchor="middle" dy="0.6em">600</text>
      </g>
    </g>
    <g transform="translate(145.4,83.32)">
      <g class="primitive">
        <text text-anchor="middle" dy="0.6em">800</text>
      </g>
    </g>
  </g>
  <g clip-path="url(#img-fc5859a1-4)">
    <g id="img-fc5859a1-5">
      <g pointer-events="visible" fill="#000000" fill-opacity="0.000" stroke="#000000" stroke-opacity="0.000" class="guide background" id="img-fc5859a1-6">
        <g transform="translate(84.35,46.46)" id="img-fc5859a1-7">
          <path d="M-63.05,-35.85 L 63.05 -35.85 63.05 35.85 -63.05 35.85 z" class="primitive"/>
        </g>
      </g>
      <g class="guide ygridlines xfixed" stroke-dasharray="0.5,0.5" stroke-width="0.2" stroke="#D0D0E0" id="img-fc5859a1-8">
        <g transform="translate(84.35,80.32)" id="img-fc5859a1-9">
          <path fill="none" d="M-63.05,0 L 63.05 0" class="primitive"/>
        </g>
        <g transform="translate(84.35,63.39)" id="img-fc5859a1-10">
          <path fill="none" d="M-63.05,0 L 63.05 0" class="primitive"/>
        </g>
        <g transform="translate(84.35,46.46)" id="img-fc5859a1-11">
          <path fill="none" d="M-63.05,0 L 63.05 0" class="primitive"/>
        </g>
        <g transform="translate(84.35,29.54)" id="img-fc5859a1-12">
          <path fill="none" d="M-63.05,0 L 63.05 0" class="primitive"/>
        </g>
        <g transform="translate(84.35,12.61)" id="img-fc5859a1-13">
          <path fill="none" d="M-63.05,0 L 63.05 0" class="primitive"/>
        </g>
      </g>
      <g class="guide xgridlines yfixed" stroke-dasharray="0.5,0.5" stroke-width="0.2" stroke="#D0D0E0" id="img-fc5859a1-14">
        <g transform="translate(23.31,46.46)" id="img-fc5859a1-15">
          <path fill="none" d="M0,-35.85 L 0 35.85" class="primitive"/>
        </g>
        <g transform="translate(53.83,46.46)" id="img-fc5859a1-16">
          <path fill="none" d="M0,-35.85 L 0 35.85" class="primitive"/>
        </g>
        <g transform="translate(84.35,46.46)" id="img-fc5859a1-17">
          <path fill="none" d="M0,-35.85 L 0 35.85" class="primitive"/>
        </g>
        <g transform="translate(114.88,46.46)" id="img-fc5859a1-18">
          <path fill="none" d="M0,-35.85 L 0 35.85" class="primitive"/>
        </g>
        <g transform="translate(145.4,46.46)" id="img-fc5859a1-19">
          <path fill="none" d="M0,-35.85 L 0 35.85" class="primitive"/>
        </g>
      </g>
      <g class="plotpanel" id="img-fc5859a1-20">
        <metadata>
          <boundingbox value="21.30500000000002mm 10.611666666666665mm 126.09499999999998mm 71.70333333333333mm"/>
          <unitbox value="-13.10454973586142 4118.162572005317 826.2090994717229 -4236.325144010634"/>
        </metadata>
        <g stroke-width="0.3" fill="#000000" fill-opacity="0.000" class="geometry" id="img-fc5859a1-21">
          <g class="color_RGB{N0f8}(0.502,0.0,0.502)" stroke-dasharray="none" stroke="#800080" id="img-fc5859a1-22">
            <g transform="translate(79.01,62.86)" id="img-fc5859a1-23">
              <path fill="none" d="M-55.71,-36.94 L -55.55 -36.13 -55.4 -35.48 -55.25 -34.72 -55.1 -34.02 -54.94 -33.21 -54.79 -32.53 -54.64 -31.75 -54.48 -31.11 -54.33 -30.43 -54.18 -29.8 -54.03 -29.24 -53.87 -28.62 -53.72 -28.14 -53.57 -27.41 -53.42 -26.89 -53.26 -26.34 -53.11 -25.84 -52.96 -25.25 -52.81 -24.84 -52.65 -24.38 -52.5 -23.81 -52.35 -23.55 -52.2 -22.95 -52.04 -22.39 -51.89 -22 -51.74 -21.67 -51.59 -21.2 -51.43 -20.96 -51.28 -20.6 -51.13 -20.17 -50.97 -19.78 -50.82 -19.68 -50.67 -19.18 -50.52 -18.91 -50.36 -18.62 -50.21 -18.39 -50.06 -17.96 -49.91 -17.42 -49.75 -17.38 -49.6 -17.13 -49.45 -16.78 -49.3 -16.56 -49.14 -16.3 -48.99 -15.95 -48.84 -15.87 -48.69 -15.47 -48.53 -15.42 -48.38 -15.09 -48.23 -14.86 -48.07 -14.55 -47.92 -14.48 -47.77 -14.47 -47.62 -13.86 -47.46 -13.82 -47.31 -13.64 -47.16 -13.57 -47.01 -13.3 -46.85 -13.22 -46.7 -12.97 -46.55 -12.86 -46.4 -12.57 -46.24 -12.39 -46.09 -12.32 -45.94 -12.26 -45.79 -11.97 -45.63 -11.94 -45.48 -11.66 -45.33 -11.7 -45.18 -11.51 -45.02 -11.46 -44.87 -11.2 -44.72 -11.22 -44.56 -10.98 -44.41 -10.91 -44.26 -10.72 -44.11 -10.5 -43.95 -10.37 -43.8 -10.3 -43.65 -10.13 -43.5 -10.27 -43.34 -9.88 -43.19 -9.9 -43.04 -9.81 -42.89 -9.64 -42.73 -9.62 -42.58 -9.21 -42.43 -9.43 -42.28 -9.06 -42.12 -9.28 -41.97 -9 -41.82 -8.69 -41.66 -8.76 -41.51 -8.68 -41.36 -8.74 -41.21 -8.64 -41.05 -8.27 -40.9 -8.3 -40.75 -8.21 -40.6 -7.81 -40.44 -7.8 -40.29 -7.97 -40.14 -7.99 -39.99 -7.77 -39.83 -7.45 -39.68 -7.58 -39.53 -7.41 -39.38 -7.2 -39.22 -7.11 -39.07 -7.25 -38.92 -7.15 -38.77 -6.94 -38.61 -6.97 -38.46 -6.81 -38.31 -6.64 -38.15 -6.64 -38 -6.54 -37.85 -6.52 -37.7 -6.29 -37.54 -6.2 -37.39 -6.36 -37.24 -6.09 -37.09 -5.89 -36.93 -6.07 -36.78 -5.85 -36.63 -5.86 -36.48 -5.79 -36.32 -5.56 -36.17 -5.38 -36.02 -5.52 -35.87 -5.26 -35.71 -5.41 -35.56 -5.39 -35.41 -5.25 -35.25 -5.06 -35.1 -5.14 -34.95 -4.85 -34.8 -4.9 -34.64 -4.77 -34.49 -4.98 -34.34 -4.86 -34.19 -4.69 -34.03 -4.74 -33.88 -4.29 -33.73 -4.44 -33.58 -4.24 -33.42 -4.14 -33.27 -4.24 -33.12 -4 -32.97 -4.15 -32.81 -4.04 -32.66 -3.9 -32.51 -4.05 -32.36 -3.76 -32.2 -3.7 -32.05 -3.89 -31.9 -3.95 -31.74 -3.5 -31.59 -3.48 -31.44 -3.22 -31.29 -3.23 -31.13 -3.27 -30.98 -3.1 -30.83 -3.44 -30.68 -3.23 -30.52 -3.04 -30.37 -3.34 -30.22 -3.13 -30.07 -2.84 -29.91 -2.89 -29.76 -2.74 -29.61 -2.87 -29.46 -2.71 -29.3 -2.75 -29.15 -2.84 -29 -2.59 -28.84 -2.58 -28.69 -2.37 -28.54 -2.46 -28.39 -2.21 -28.23 -2.44 -28.08 -2.2 -27.93 -2.58 -27.78 -2.2 -27.62 -2.24 -27.47 -2.04 -27.32 -1.9 -27.17 -2.4 -27.01 -1.96 -26.86 -1.97 -26.71 -1.92 -26.56 -1.81 -26.4 -1.69 -26.25 -1.54 -26.1 -1.83 -25.95 -1.8 -25.79 -1.47 -25.64 -1.67 -25.49 -1.54 -25.33 -1.48 -25.18 -1.66 -25.03 -1.43 -24.88 -1.46 -24.72 -1.31 -24.57 -1.36 -24.42 -1.32 -24.27 -1.12 -24.11 -1.03 -23.96 -1.22 -23.81 -1.27 -23.66 -1.1 -23.5 -0.99 -23.35 -0.91 -23.2 -1.11 -23.05 -0.93 -22.89 -0.81 -22.74 -0.72 -22.59 -0.7 -22.43 -0.82 -22.28 -0.84 -22.13 -0.96 -21.98 -0.83 -21.82 -0.6 -21.67 -0.53 -21.52 -0.45 -21.37 -0.55 -21.21 -0.54 -21.06 -0.61 -20.91 0.07 -20.76 -0.09 -20.6 -0.24 -20.45 -0.66 -20.3 -0.18 -20.15 -0.06 -19.99 -0.2 -19.84 -0.22 -19.69 0.13 -19.54 0.09 -19.38 0.2 -19.23 -0.07 -19.08 0.2 -18.92 -0.06 -18.77 0.29 -18.62 -0.25 -18.47 0.34 -18.31 0.3 -18.16 0.22 -18.01 0.43 -17.86 0.4 -17.7 0.27 -17.55 0.35 -17.4 0.19 -17.25 0.33 -17.09 0.77 -16.94 0.37 -16.79 0.14 -16.64 0.42 -16.48 0.65 -16.33 0.68 -16.18 0.62 -16.02 0.82 -15.87 1.13 -15.72 0.61 -15.57 0.68 -15.41 0.76 -15.26 1.04 -15.11 0.71 -14.96 0.64 -14.8 0.96 -14.65 0.71 -14.5 1.23 -14.35 0.65 -14.19 1.23 -14.04 1.41 -13.89 0.86 -13.74 1.2 -13.58 1.45 -13.43 1.32 -13.28 1.43 -13.13 1.36 -12.97 0.99 -12.82 1.37 -12.67 1.05 -12.51 1.34 -12.36 1.43 -12.21 0.99 -12.06 1.61 -11.9 1.13 -11.75 1.57 -11.6 1.52 -11.45 1.36 -11.29 1.84 -11.14 1.62 -10.99 1.76 -10.84 1.34 -10.68 1.64 -10.53 1.79 -10.38 1.34 -10.23 2 -10.07 2.05 -9.92 1.81 -9.77 1.96 -9.61 1.93 -9.46 1.73 -9.31 1.75 -9.16 2.13 -9 1.8 -8.85 2.07 -8.7 1.8 -8.55 2.14 -8.39 2.25 -8.24 2.03 -8.09 2.01 -7.94 1.49 -7.78 2.4 -7.63 2.03 -7.48 1.87 -7.33 2.04 -7.17 2.02 -7.02 2.45 -6.87 2.02 -6.72 2.13 -6.56 2.25 -6.41 2.22 -6.26 2.1 -6.1 2.42 -5.95 2.37 -5.8 2.33 -5.65 2.67 -5.49 2.79 -5.34 2.41 -5.19 2.6 -5.04 2.14 -4.88 2.32 -4.73 2.66 -4.58 2.73 -4.43 2.57 -4.27 3 -4.12 2.71 -3.97 2.74 -3.82 2.69 -3.66 2.49 -3.51 2.94 -3.36 2.93 -3.2 2.72 -3.05 2.84 -2.9 2.71 -2.75 3.39 -2.59 2.98 -2.44 2.99 -2.29 2.93 -2.14 2.65 -1.98 2.87 -1.83 3.2 -1.68 3 -1.53 2.34 -1.37 3.3 -1.22 2.99 -1.07 2.66 -0.92 3.27 -0.76 3.25 -0.61 2.98 -0.46 2.97 -0.31 3.04 -0.15 3.21 0 2.78 0.15 3.09 0.31 2.78 0.46 2.88 0.61 3.51 0.76 3.45 0.92 3.36 1.07 3.48 1.22 3.6 1.37 3.49 1.53 3.33 1.68 3 1.83 3.03 1.98 3.65 2.14 3.53 2.29 2.88 2.44 3.52 2.59 3.31 2.75 3.56 2.9 3.69 3.05 3.44 3.2 3.45 3.36 3.74 3.51 2.81 3.66 3.68 3.82 3.93 3.97 3.31 4.12 3.6 4.27 3.5 4.43 3.94 4.58 3.72 4.73 3.49 4.88 3.5 5.04 3.95 5.19 3.77 5.34 3.79 5.49 3.69 5.65 4.19 5.8 3.75 5.95 4.06 6.1 4.2 6.26 3.4 6.41 3.89 6.56 4.01 6.72 4.24 6.87 4.5 7.02 3.91 7.17 3.99 7.33 3.81 7.48 3.84 7.63 3.73 7.78 4.2 7.94 4.22 8.09 3.85 8.24 4.13 8.39 3.94 8.55 4.06 8.7 3.99 8.85 4.58 9 3.8 9.16 4.51 9.31 4.27 9.46 4.03 9.61 4.16 9.77 4.21 9.92 4.2 10.07 3.87 10.23 4.52 10.38 3.83 10.53 4.25 10.68 4.64 10.84 4.71 10.99 4.22 11.14 4.91 11.29 4.2 11.45 4.07 11.6 4.53 11.75 4.08 11.9 4.26 12.06 4.35 12.21 4.03 12.36 4.51 12.51 3.7 12.67 4.66 12.82 4.06 12.97 4.66 13.13 4.7 13.28 4.4 13.43 4.25 13.58 4.39 13.74 4.4 13.89 5.04 14.04 4.49 14.19 4.6 14.35 4.42 14.5 4.83 14.65 4.64 14.8 4.79 14.96 4.53 15.11 4.46 15.26 5.2 15.41 4.92 15.57 4.85 15.72 4.76 15.87 4.6 16.02 4.66 16.18 5.39 16.33 4.59 16.48 4.88 16.64 4.97 16.79 4.66 16.94 4.81 17.09 4.58 17.25 4.3 17.4 4.83 17.55 4.46 17.7 5.39 17.86 4.84 18.01 4.81 18.16 5.22 18.31 4.42 18.47 5.15 18.62 4.68 18.77 4.51 18.92 4.73 19.08 5.13 19.23 5.08 19.38 5.04 19.54 4.97 19.69 5.08 19.84 4.51 19.99 5.21 20.15 4.66 20.3 4.7 20.45 4.75 20.6 4.97 20.76 5.01 20.91 4.61 21.06 5.33 21.21 5.4 21.37 5.47 21.52 4.67 21.67 5.16 21.82 4.86 21.98 5.31 22.13 5.13 22.28 5.27 22.43 4.63 22.59 5.16 22.74 5.86 22.89 5.69 23.05 5.31 23.2 5.12 23.35 5.16 23.5 4.86 23.66 5.72 23.81 5.2 23.96 5.49 24.11 5.35 24.27 5.82 24.42 6 24.57 5.07 24.72 5.7 24.88 5.08 25.03 5.03 25.18 5.21 25.33 4.82 25.49 5.77 25.64 5.43 25.79 5.38 25.95 5.32 26.1 5.6 26.25 5.19 26.4 5.4 26.56 5.07 26.71 5.23 26.86 5.81 27.01 5.32 27.17 4.94 27.32 5.17 27.47 5.43 27.62 5.59 27.78 5.84 27.93 5.85 28.08 5.01 28.23 5.23 28.39 5.95 28.54 5.58 28.69 6.04 28.84 5.56 29 5.35 29.15 5.79 29.3 5.43 29.46 5.12 29.61 6.22 29.76 5.51 29.91 5.75 30.07 5.78 30.22 5.34 30.37 5.76 30.52 5.59 30.68 5.71 30.83 5.72 30.98 5.37 31.13 5.5 31.29 5.71 31.44 5.18 31.59 5.61 31.74 5.94 31.9 6.2 32.05 5.82 32.2 5.69 32.36 5.37 32.51 5.89 32.66 5.84 32.81 6.12 32.97 6 33.12 5.97 33.27 5.9 33.42 5.87 33.58 5.82 33.73 5.98 33.88 5.64 34.03 5.55 34.19 6.08 34.34 5.96 34.49 5.68 34.64 6.43 34.8 6.14 34.95 6.04 35.1 5.42 35.25 6.13 35.41 6.21 35.56 6.02 35.71 6.1 35.87 6.07 36.02 5.78 36.17 5.8 36.32 5.99 36.48 6.05 36.63 6.51 36.78 5.87 36.93 6.41 37.09 5.67 37.24 6.22 37.39 6.49 37.54 5.98 37.7 6.38 37.85 6.04 38 6.24 38.15 6.31 38.31 5.67 38.46 6.33 38.61 6.01 38.77 5.95 38.92 6.08 39.07 6.21 39.22 5.87 39.38 6.45 39.53 6.44 39.68 5.96 39.83 6.13 39.99 6.03 40.14 6.25 40.29 6.72 40.44 6.07 40.6 6.29 40.75 6.27 40.9 6.76 41.05 6 41.21 5.91 41.36 6.46 41.51 6.17 41.66 6.13 41.82 6.23 41.97 6.61 42.12 6.53 42.28 6.52 42.43 6.33 42.58 6.47 42.73 6.62 42.89 6.07 43.04 6.5 43.19 6.06 43.34 6.06 43.5 6.08 43.65 6.08 43.8 6.35 43.95 6.22 44.11 6.17 44.26 6.36 44.41 6.34 44.56 6.51 44.72 6 44.87 6.19 45.02 6.34 45.18 6.31 45.33 6.69 45.48 6.29 45.63 6.42 45.79 6.82 45.94 6.54 46.09 6.06 46.24 6.89 46.4 6.15 46.55 5.92 46.7 6.59 46.85 6.46 47.01 6.43 47.16 6.94 47.31 6.24 47.46 7.08 47.62 6.61 47.77 6.83 47.92 6.71 48.07 6.62 48.23 6.73 48.38 6.77 48.53 6.85 48.69 6.52 48.84 6.56 48.99 6.37 49.14 6.33 49.3 6.27 49.45 7.27 49.6 6.51 49.75 6.55 49.91 6.52 50.06 6.83 50.21 6.7 50.36 6.54 50.52 6.9 50.67 6.62 50.82 6.37 50.97 6.44 51.13 6.24 51.28 6.62 51.43 6.83 51.59 6.46 51.74 6.98 51.89 6.85 52.04 6.66 52.2 7.51 52.35 6.86 52.5 6.89 52.65 6.88 52.81 7.05 52.96 6.7 53.11 6.89 53.26 6.9 53.42 6.71 53.57 6.87 53.72 6.72 53.87 6.82 54.03 7.12 54.18 7.08 54.33 6.6 54.48 7.12 54.64 6.69 54.79 7.42 54.94 7.25 55.1 6.45 55.25 7.28 55.4 7.27 55.55 6.85 55.71 6.82" class="primitive"/>
            </g>
          </g>
        </g>
      </g>
    </g>
  </g>
  <g class="guide ylabels" font-size="2.82" font-family="'PT Sans Caption','Helvetica Neue','Helvetica',sans-serif" fill="#6C606B" id="img-fc5859a1-24">
    <g transform="translate(20.3,80.32)" id="img-fc5859a1-25">
      <g class="primitive">
        <text text-anchor="end" dy="0.35em">0</text>
      </g>
    </g>
    <g transform="translate(20.3,63.39)" id="img-fc5859a1-26">
      <g class="primitive">
        <text text-anchor="end" dy="0.35em">1000</text>
      </g>
    </g>
    <g transform="translate(20.3,46.46)" id="img-fc5859a1-27">
      <g class="primitive">
        <text text-anchor="end" dy="0.35em">2000</text>
      </g>
    </g>
    <g transform="translate(20.3,29.54)" id="img-fc5859a1-28">
      <g class="primitive">
        <text text-anchor="end" dy="0.35em">3000</text>
      </g>
    </g>
    <g transform="translate(20.3,12.61)" id="img-fc5859a1-29">
      <g class="primitive">
        <text text-anchor="end" dy="0.35em">4000</text>
      </g>
    </g>
  </g>
  <g font-size="3.88" font-family="'PT Sans','Helvetica Neue','Helvetica',sans-serif" fill="#564A55" stroke="#000000" stroke-opacity="0.000" id="img-fc5859a1-30">
    <g transform="translate(8.81,44.46)" id="img-fc5859a1-31">
      <g class="primitive">
        <text text-anchor="middle" dy="0.35em" transform="rotate(-90,0, 2)">Flowing Pressure (psig)</text>
      </g>
    </g>
  </g>
  <g font-size="3.88" font-family="'PT Sans','Helvetica Neue','Helvetica',sans-serif" fill="#564A55" stroke="#000000" stroke-opacity="0.000" id="img-fc5859a1-32">
    <g transform="translate(84.35,5)" id="img-fc5859a1-33">
      <g class="primitive">
        <text text-anchor="middle" dy="0.6em">FBHP Over Time</text>
      </g>
    </g>
  </g>
</g>
<defs>
  <clipPath id="img-fc5859a1-4">
    <path d="M21.31,10.61 L 147.4 10.61 147.4 82.32 21.31 82.32" />
  </clipPath>
</defs>
</svg>
